<svg width="157" height="48" viewBox="0 0 157 48" fill="none" xmlns="http://www.w3.org/2000/svg">
<path d="M153 0C155.209 3.22128e-08 157 1.79086 157 4V33.5654C157 35.7745 155.209 37.5654 153 37.5654H9.28516L2.98926 48V37.4355C1.26966 36.9877 9.71915e-05 35.4252 0 33.5654V4C1.35783e-06 1.79086 1.79086 3.22128e-08 4 0H153Z" fill="url(#paint0_linear_330_769)"/>
<path d="M7.657 15V8.7H8.719L10.852 12.957L12.976 8.7H14.047V15H13.147V10.275L11.194 14.118H10.501L8.557 10.284V15H7.657ZM15.3742 15V10.464H16.2742V15H15.3742ZM15.8332 9.609C15.6592 9.609 15.5152 9.555 15.4012 9.447C15.2932 9.339 15.2392 9.201 15.2392 9.033C15.2392 8.871 15.2932 8.739 15.4012 8.637C15.5152 8.529 15.6592 8.475 15.8332 8.475C16.0012 8.475 16.1422 8.529 16.2562 8.637C16.3702 8.739 16.4272 8.871 16.4272 9.033C16.4272 9.201 16.3702 9.339 16.2562 9.447C16.1422 9.555 16.0012 9.609 15.8332 9.609ZM17.5612 15V10.464H18.3712L18.4252 11.238C18.5692 10.968 18.7732 10.755 19.0372 10.599C19.3012 10.437 19.6042 10.356 19.9462 10.356C20.3062 10.356 20.6152 10.428 20.8732 10.572C21.1312 10.716 21.3322 10.935 21.4762 11.229C21.6202 11.517 21.6922 11.88 21.6922 12.318V15H20.7922V12.408C20.7922 11.988 20.6992 11.67 20.5132 11.454C20.3272 11.238 20.0572 11.13 19.7032 11.13C19.4692 11.13 19.2592 11.187 19.0732 11.301C18.8872 11.409 18.7372 11.571 18.6232 11.787C18.5152 12.003 18.4612 12.267 18.4612 12.579V15H17.5612ZM22.9064 15V10.464H23.8064V15H22.9064ZM23.3654 9.609C23.1914 9.609 23.0474 9.555 22.9334 9.447C22.8254 9.339 22.7714 9.201 22.7714 9.033C22.7714 8.871 22.8254 8.739 22.9334 8.637C23.0474 8.529 23.1914 8.475 23.3654 8.475C23.5334 8.475 23.6744 8.529 23.7884 8.637C23.9024 8.739 23.9594 8.871 23.9594 9.033C23.9594 9.201 23.9024 9.339 23.7884 9.447C23.6744 9.555 23.5334 9.609 23.3654 9.609ZM25.0934 15V10.464H25.9034L25.9664 11.103C26.1104 10.869 26.3024 10.686 26.5424 10.554C26.7824 10.422 27.0524 10.356 27.3524 10.356C27.5804 10.356 27.7874 10.389 27.9734 10.455C28.1594 10.515 28.3244 10.608 28.4684 10.734C28.6124 10.86 28.7294 11.016 28.8194 11.202C28.9814 10.938 29.1974 10.731 29.4674 10.581C29.7434 10.431 30.0344 10.356 30.3404 10.356C30.7064 10.356 31.0214 10.431 31.2854 10.581C31.5494 10.725 31.7504 10.944 31.8884 11.238C32.0264 11.526 32.0954 11.886 32.0954 12.318V15H31.2044V12.408C31.2044 11.988 31.1174 11.67 30.9434 11.454C30.7754 11.238 30.5264 11.13 30.1964 11.13C29.9744 11.13 29.7764 11.187 29.6024 11.301C29.4284 11.415 29.2904 11.58 29.1884 11.796C29.0924 12.012 29.0444 12.276 29.0444 12.588V15H28.1444V12.408C28.1444 11.988 28.0574 11.67 27.8834 11.454C27.7154 11.238 27.4664 11.13 27.1364 11.13C26.9264 11.13 26.7344 11.187 26.5604 11.301C26.3864 11.415 26.2484 11.58 26.1464 11.796C26.0444 12.012 25.9934 12.276 25.9934 12.588V15H25.0934ZM34.9235 15.108C34.5695 15.108 34.2605 15.036 33.9965 14.892C33.7385 14.748 33.5375 14.532 33.3935 14.244C33.2555 13.956 33.1865 13.593 33.1865 13.155V10.464H34.0865V13.056C34.0865 13.482 34.1795 13.803 34.3655 14.019C34.5515 14.235 34.8185 14.343 35.1665 14.343C35.4005 14.343 35.6105 14.286 35.7965 14.172C35.9885 14.058 36.1385 13.893 36.2465 13.677C36.3545 13.461 36.4085 13.197 36.4085 12.885V10.464H37.3085V15H36.5075L36.4445 14.226C36.3065 14.502 36.1055 14.718 35.8415 14.874C35.5775 15.03 35.2715 15.108 34.9235 15.108ZM38.5407 15V10.464H39.3507L39.4137 11.103C39.5577 10.869 39.7497 10.686 39.9897 10.554C40.2297 10.422 40.4997 10.356 40.7997 10.356C41.0277 10.356 41.2347 10.389 41.4207 10.455C41.6067 10.515 41.7717 10.608 41.9157 10.734C42.0597 10.86 42.1767 11.016 42.2667 11.202C42.4287 10.938 42.6447 10.731 42.9147 10.581C43.1907 10.431 43.4817 10.356 43.7877 10.356C44.1537 10.356 44.4687 10.431 44.7327 10.581C44.9967 10.725 45.1977 10.944 45.3357 11.238C45.4737 11.526 45.5427 11.886 45.5427 12.318V15H44.6517V12.408C44.6517 11.988 44.5647 11.67 44.3907 11.454C44.2227 11.238 43.9737 11.13 43.6437 11.13C43.4217 11.13 43.2237 11.187 43.0497 11.301C42.8757 11.415 42.7377 11.58 42.6357 11.796C42.5397 12.012 42.4917 12.276 42.4917 12.588V15H41.5917V12.408C41.5917 11.988 41.5047 11.67 41.3307 11.454C41.1627 11.238 40.9137 11.13 40.5837 11.13C40.3737 11.13 40.1817 11.187 40.0077 11.301C39.8337 11.415 39.6957 11.58 39.5937 11.796C39.4917 12.012 39.4407 12.276 39.4407 12.588V15H38.5407ZM51.0785 15.108C50.6525 15.108 50.2685 15.009 49.9265 14.811C49.5905 14.613 49.3235 14.337 49.1255 13.983C48.9335 13.623 48.8375 13.209 48.8375 12.741C48.8375 12.261 48.9365 11.844 49.1345 11.49C49.3325 11.13 49.6025 10.851 49.9445 10.653C50.2865 10.455 50.6705 10.356 51.0965 10.356C51.5285 10.356 51.9125 10.455 52.2485 10.653C52.5845 10.851 52.8485 11.127 53.0405 11.481C53.2385 11.835 53.3375 12.252 53.3375 12.732C53.3375 13.212 53.2385 13.629 53.0405 13.983C52.8485 14.337 52.5815 14.613 52.2395 14.811C51.8975 15.009 51.5105 15.108 51.0785 15.108ZM51.0785 14.334C51.3245 14.334 51.5465 14.274 51.7445 14.154C51.9485 14.034 52.1105 13.857 52.2305 13.623C52.3565 13.383 52.4195 13.086 52.4195 12.732C52.4195 12.378 52.3595 12.084 52.2395 11.85C52.1195 11.61 51.9575 11.43 51.7535 11.31C51.5555 11.19 51.3365 11.13 51.0965 11.13C50.8565 11.13 50.6345 11.19 50.4305 11.31C50.2265 11.43 50.0615 11.61 49.9355 11.85C49.8155 12.084 49.7555 12.378 49.7555 12.732C49.7555 13.086 49.8155 13.383 49.9355 13.623C50.0615 13.857 50.2235 14.034 50.4215 14.154C50.6255 14.274 50.8445 14.334 51.0785 14.334ZM54.3962 15V10.464H55.2062L55.2872 11.319C55.3892 11.115 55.5212 10.944 55.6832 10.806C55.8452 10.662 56.0342 10.551 56.2502 10.473C56.4722 10.395 56.7242 10.356 57.0062 10.356V11.31H56.6822C56.4962 11.31 56.3192 11.334 56.1512 11.382C55.9832 11.424 55.8332 11.499 55.7012 11.607C55.5752 11.715 55.4762 11.862 55.4042 12.048C55.3322 12.234 55.2962 12.465 55.2962 12.741V15H54.3962ZM59.7169 15.108C59.2849 15.108 58.9039 15.006 58.5739 14.802C58.2439 14.592 57.9859 14.31 57.7999 13.956C57.6199 13.596 57.5299 13.188 57.5299 12.732C57.5299 12.27 57.6199 11.862 57.7999 11.508C57.9859 11.154 58.2439 10.875 58.5739 10.671C58.9099 10.461 59.2939 10.356 59.7259 10.356C60.0799 10.356 60.3919 10.428 60.6619 10.572C60.9319 10.71 61.1419 10.908 61.2919 11.166V8.52H62.1919V15H61.3819L61.2919 14.298C61.2019 14.436 61.0849 14.568 60.9409 14.694C60.7969 14.814 60.6229 14.913 60.4189 14.991C60.2149 15.069 59.9809 15.108 59.7169 15.108ZM59.8609 14.325C60.1429 14.325 60.3919 14.259 60.6079 14.127C60.8239 13.995 60.9889 13.809 61.1029 13.569C61.2229 13.329 61.2829 13.05 61.2829 12.732C61.2829 12.414 61.2229 12.138 61.1029 11.904C60.9889 11.664 60.8239 11.478 60.6079 11.346C60.3919 11.208 60.1429 11.139 59.8609 11.139C59.5909 11.139 59.3479 11.208 59.1319 11.346C58.9159 11.478 58.7479 11.664 58.6279 11.904C58.5079 12.138 58.4479 12.414 58.4479 12.732C58.4479 13.05 58.5079 13.329 58.6279 13.569C58.7479 13.809 58.9159 13.995 59.1319 14.127C59.3479 14.259 59.5909 14.325 59.8609 14.325ZM65.4745 15.108C65.0425 15.108 64.6585 15.009 64.3225 14.811C63.9865 14.613 63.7225 14.337 63.5305 13.983C63.3445 13.629 63.2515 13.218 63.2515 12.75C63.2515 12.27 63.3445 11.853 63.5305 11.499C63.7225 11.139 63.9865 10.86 64.3225 10.662C64.6585 10.458 65.0485 10.356 65.4925 10.356C65.9365 10.356 66.3175 10.455 66.6355 10.653C66.9535 10.851 67.1995 11.115 67.3735 11.445C67.5475 11.769 67.6345 12.129 67.6345 12.525C67.6345 12.585 67.6315 12.651 67.6255 12.723C67.6255 12.789 67.6225 12.864 67.6165 12.948H63.9085V12.309H66.7345C66.7165 11.931 66.5905 11.637 66.3565 11.427C66.1225 11.211 65.8315 11.103 65.4835 11.103C65.2375 11.103 65.0125 11.16 64.8085 11.274C64.6045 11.382 64.4395 11.544 64.3135 11.76C64.1935 11.97 64.1335 12.237 64.1335 12.561V12.813C64.1335 13.149 64.1935 13.434 64.3135 13.668C64.4395 13.896 64.6045 14.07 64.8085 14.19C65.0125 14.304 65.2345 14.361 65.4745 14.361C65.7625 14.361 65.9995 14.298 66.1855 14.172C66.3715 14.046 66.5095 13.875 66.5995 13.659H67.4995C67.4215 13.935 67.2895 14.184 67.1035 14.406C66.9175 14.622 66.6865 14.793 66.4105 14.919C66.1405 15.045 65.8285 15.108 65.4745 15.108ZM68.6345 15V10.464H69.4445L69.5255 11.319C69.6275 11.115 69.7595 10.944 69.9215 10.806C70.0835 10.662 70.2725 10.551 70.4885 10.473C70.7105 10.395 70.9625 10.356 71.2445 10.356V11.31H70.9205C70.7345 11.31 70.5575 11.334 70.3895 11.382C70.2215 11.424 70.0715 11.499 69.9395 11.607C69.8135 11.715 69.7145 11.862 69.6425 12.048C69.5705 12.234 69.5345 12.465 69.5345 12.741V15H68.6345ZM75.6607 15L73.9597 10.464H74.9047L76.1917 14.136L77.4877 10.464H78.4147L76.7227 15H75.6607ZM80.4822 15.108C80.1102 15.108 79.8012 15.045 79.5552 14.919C79.3092 14.793 79.1262 14.625 79.0062 14.415C78.8862 14.199 78.8262 13.968 78.8262 13.722C78.8262 13.422 78.9042 13.167 79.0602 12.957C79.2162 12.741 79.4382 12.576 79.7262 12.462C80.0142 12.348 80.3592 12.291 80.7612 12.291H81.9402C81.9402 12.027 81.9012 11.808 81.8232 11.634C81.7452 11.46 81.6282 11.331 81.4722 11.247C81.3222 11.157 81.1302 11.112 80.8962 11.112C80.6262 11.112 80.3952 11.178 80.2032 11.31C80.0112 11.436 79.8912 11.625 79.8432 11.877H78.9432C78.9792 11.559 79.0872 11.289 79.2672 11.067C79.4532 10.839 79.6902 10.665 79.9782 10.545C80.2662 10.419 80.5722 10.356 80.8962 10.356C81.3222 10.356 81.6792 10.431 81.9672 10.581C82.2552 10.731 82.4712 10.944 82.6152 11.22C82.7652 11.49 82.8402 11.814 82.8402 12.192V15H82.0572L81.9852 14.235C81.9192 14.355 81.8412 14.469 81.7512 14.577C81.6612 14.685 81.5532 14.778 81.4272 14.856C81.3072 14.934 81.1662 14.994 81.0042 15.036C80.8482 15.084 80.6742 15.108 80.4822 15.108ZM80.6532 14.379C80.8452 14.379 81.0192 14.34 81.1752 14.262C81.3312 14.184 81.4632 14.079 81.5712 13.947C81.6852 13.809 81.7692 13.656 81.8232 13.488C81.8832 13.314 81.9162 13.137 81.9222 12.957V12.93H80.8512C80.5932 12.93 80.3832 12.963 80.2212 13.029C80.0652 13.089 79.9512 13.173 79.8792 13.281C79.8072 13.389 79.7712 13.515 79.7712 13.659C79.7712 13.809 79.8042 13.938 79.8702 14.046C79.9422 14.148 80.0442 14.229 80.1762 14.289C80.3082 14.349 80.4672 14.379 80.6532 14.379ZM83.989 15V8.52H84.889V15H83.989ZM87.7897 15.108C87.4357 15.108 87.1267 15.036 86.8627 14.892C86.6047 14.748 86.4037 14.532 86.2597 14.244C86.1217 13.956 86.0527 13.593 86.0527 13.155V10.464H86.9527V13.056C86.9527 13.482 87.0457 13.803 87.2317 14.019C87.4177 14.235 87.6847 14.343 88.0327 14.343C88.2667 14.343 88.4767 14.286 88.6627 14.172C88.8547 14.058 89.0047 13.893 89.1127 13.677C89.2207 13.461 89.2747 13.197 89.2747 12.885V10.464H90.1747V15H89.3737L89.3107 14.226C89.1727 14.502 88.9717 14.718 88.7077 14.874C88.4437 15.03 88.1377 15.108 87.7897 15.108ZM93.4589 15.108C93.0269 15.108 92.6429 15.009 92.3069 14.811C91.9709 14.613 91.7069 14.337 91.5149 13.983C91.3289 13.629 91.2359 13.218 91.2359 12.75C91.2359 12.27 91.3289 11.853 91.5149 11.499C91.7069 11.139 91.9709 10.86 92.3069 10.662C92.6429 10.458 93.0329 10.356 93.4769 10.356C93.9209 10.356 94.3019 10.455 94.6199 10.653C94.9379 10.851 95.1839 11.115 95.3579 11.445C95.5319 11.769 95.6189 12.129 95.6189 12.525C95.6189 12.585 95.6159 12.651 95.6099 12.723C95.6099 12.789 95.6069 12.864 95.6009 12.948H91.8929V12.309H94.7189C94.7009 11.931 94.5749 11.637 94.3409 11.427C94.1069 11.211 93.8159 11.103 93.4679 11.103C93.2219 11.103 92.9969 11.16 92.7929 11.274C92.5889 11.382 92.4239 11.544 92.2979 11.76C92.1779 11.97 92.1179 12.237 92.1179 12.561V12.813C92.1179 13.149 92.1779 13.434 92.2979 13.668C92.4239 13.896 92.5889 14.07 92.7929 14.19C92.9969 14.304 93.2189 14.361 93.4589 14.361C93.7469 14.361 93.9839 14.298 94.1699 14.172C94.3559 14.046 94.4939 13.875 94.5839 13.659H95.4839C95.4059 13.935 95.2739 14.184 95.0879 14.406C94.9019 14.622 94.6709 14.793 94.3949 14.919C94.1249 15.045 93.8129 15.108 93.4589 15.108ZM100.992 15.108C100.566 15.108 100.182 15.009 99.8396 14.811C99.5036 14.613 99.2366 14.337 99.0386 13.983C98.8466 13.623 98.7506 13.209 98.7506 12.741C98.7506 12.261 98.8496 11.844 99.0476 11.49C99.2456 11.13 99.5156 10.851 99.8576 10.653C100.2 10.455 100.584 10.356 101.01 10.356C101.442 10.356 101.826 10.455 102.162 10.653C102.498 10.851 102.762 11.127 102.954 11.481C103.152 11.835 103.251 12.252 103.251 12.732C103.251 13.212 103.152 13.629 102.954 13.983C102.762 14.337 102.495 14.613 102.153 14.811C101.811 15.009 101.424 15.108 100.992 15.108ZM100.992 14.334C101.238 14.334 101.46 14.274 101.658 14.154C101.862 14.034 102.024 13.857 102.144 13.623C102.27 13.383 102.333 13.086 102.333 12.732C102.333 12.378 102.273 12.084 102.153 11.85C102.033 11.61 101.871 11.43 101.667 11.31C101.469 11.19 101.25 11.13 101.01 11.13C100.77 11.13 100.548 11.19 100.344 11.31C100.14 11.43 99.9746 11.61 99.8486 11.85C99.7286 12.084 99.6686 12.378 99.6686 12.732C99.6686 13.086 99.7286 13.383 99.8486 13.623C99.9746 13.857 100.137 14.034 100.335 14.154C100.539 14.274 100.758 14.334 100.992 14.334ZM104.552 15V9.852C104.552 9.54 104.603 9.285 104.705 9.087C104.813 8.889 104.969 8.745 105.173 8.655C105.377 8.565 105.623 8.52 105.911 8.52H106.442V9.285H106.055C105.839 9.285 105.683 9.33 105.587 9.42C105.497 9.504 105.452 9.654 105.452 9.87V15H104.552ZM103.886 11.229V10.464H106.541V11.229H103.886ZM109.803 15V8.7H111.936C112.434 8.7 112.842 8.784 113.16 8.952C113.478 9.12 113.712 9.345 113.862 9.627C114.018 9.903 114.096 10.218 114.096 10.572C114.096 10.908 114.018 11.22 113.862 11.508C113.712 11.79 113.475 12.018 113.151 12.192C112.827 12.36 112.413 12.444 111.909 12.444H110.703V15H109.803ZM113.115 15L111.756 12.201H112.746L114.159 15H113.115ZM110.703 11.76H111.873C112.317 11.76 112.644 11.652 112.854 11.436C113.064 11.214 113.169 10.932 113.169 10.59C113.169 10.242 113.067 9.966 112.863 9.762C112.659 9.558 112.329 9.456 111.873 9.456H110.703V11.76ZM116.848 15.108C116.464 15.108 116.128 15.045 115.84 14.919C115.552 14.793 115.324 14.616 115.156 14.388C114.988 14.16 114.886 13.893 114.85 13.587H115.768C115.798 13.731 115.855 13.863 115.939 13.983C116.029 14.103 116.149 14.199 116.299 14.271C116.455 14.343 116.638 14.379 116.848 14.379C117.046 14.379 117.208 14.352 117.334 14.298C117.466 14.238 117.562 14.16 117.622 14.064C117.682 13.962 117.712 13.854 117.712 13.74C117.712 13.572 117.67 13.446 117.586 13.362C117.508 13.272 117.388 13.203 117.226 13.155C117.07 13.101 116.881 13.053 116.659 13.011C116.449 12.975 116.245 12.927 116.047 12.867C115.855 12.801 115.681 12.72 115.525 12.624C115.375 12.528 115.255 12.408 115.165 12.264C115.075 12.114 115.03 11.931 115.03 11.715C115.03 11.457 115.099 11.226 115.237 11.022C115.375 10.812 115.57 10.65 115.822 10.536C116.08 10.416 116.383 10.356 116.731 10.356C117.235 10.356 117.64 10.476 117.946 10.716C118.252 10.956 118.432 11.295 118.486 11.733H117.613C117.589 11.529 117.499 11.373 117.343 11.265C117.187 11.151 116.98 11.094 116.722 11.094C116.464 11.094 116.266 11.145 116.128 11.247C115.99 11.349 115.921 11.484 115.921 11.652C115.921 11.76 115.96 11.856 116.038 11.94C116.116 12.024 116.23 12.096 116.38 12.156C116.536 12.21 116.725 12.261 116.947 12.309C117.265 12.369 117.55 12.444 117.802 12.534C118.054 12.624 118.255 12.756 118.405 12.93C118.555 13.104 118.63 13.353 118.63 13.677C118.636 13.959 118.564 14.208 118.414 14.424C118.27 14.64 118.063 14.808 117.793 14.928C117.529 15.048 117.214 15.108 116.848 15.108ZM120.05 15.045C119.876 15.045 119.732 14.991 119.618 14.883C119.51 14.769 119.456 14.634 119.456 14.478C119.456 14.316 119.51 14.181 119.618 14.073C119.732 13.959 119.876 13.902 120.05 13.902C120.224 13.902 120.365 13.959 120.473 14.073C120.581 14.181 120.635 14.316 120.635 14.478C120.635 14.634 120.581 14.769 120.473 14.883C120.365 14.991 120.224 15.045 120.05 15.045ZM123.838 15.108C123.394 15.108 123.013 15.03 122.695 14.874C122.377 14.712 122.125 14.496 121.939 14.226C121.753 13.95 121.639 13.641 121.597 13.299H122.479C122.539 13.605 122.689 13.857 122.929 14.055C123.169 14.247 123.472 14.343 123.838 14.343C124.114 14.343 124.351 14.277 124.549 14.145C124.747 14.013 124.9 13.836 125.008 13.614C125.116 13.392 125.17 13.146 125.17 12.876C125.17 12.588 125.113 12.339 124.999 12.129C124.891 11.913 124.738 11.745 124.54 11.625C124.348 11.505 124.123 11.445 123.865 11.445C123.553 11.445 123.283 11.517 123.055 11.661C122.833 11.799 122.671 11.976 122.569 12.192H121.696L122.218 8.7H125.611V9.483H122.911L122.578 11.247C122.722 11.085 122.914 10.953 123.154 10.851C123.4 10.749 123.679 10.698 123.991 10.698C124.309 10.698 124.594 10.755 124.846 10.869C125.098 10.977 125.311 11.13 125.485 11.328C125.665 11.526 125.8 11.757 125.89 12.021C125.986 12.285 126.034 12.564 126.034 12.858C126.034 13.176 125.983 13.47 125.881 13.74C125.779 14.01 125.632 14.25 125.44 14.46C125.254 14.664 125.023 14.823 124.747 14.937C124.477 15.051 124.174 15.108 123.838 15.108ZM129.654 15.108C129.096 15.108 128.616 14.973 128.214 14.703C127.812 14.427 127.503 14.046 127.287 13.56C127.071 13.068 126.963 12.498 126.963 11.85C126.963 11.202 127.071 10.635 127.287 10.149C127.503 9.657 127.812 9.276 128.214 9.006C128.616 8.73 129.096 8.592 129.654 8.592C130.212 8.592 130.689 8.73 131.085 9.006C131.487 9.276 131.793 9.657 132.003 10.149C132.219 10.635 132.327 11.202 132.327 11.85C132.327 12.498 132.219 13.068 132.003 13.56C131.793 14.046 131.487 14.427 131.085 14.703C130.689 14.973 130.212 15.108 129.654 15.108ZM129.654 14.307C129.99 14.307 130.29 14.208 130.554 14.01C130.824 13.812 131.034 13.53 131.184 13.164C131.334 12.798 131.409 12.36 131.409 11.85C131.409 11.34 131.334 10.902 131.184 10.536C131.034 10.17 130.824 9.891 130.554 9.699C130.29 9.501 129.99 9.402 129.654 9.402C129.312 9.402 129.006 9.501 128.736 9.699C128.466 9.891 128.256 10.17 128.106 10.536C127.956 10.902 127.881 11.34 127.881 11.85C127.881 12.36 127.956 12.798 128.106 13.164C128.256 13.53 128.466 13.812 128.736 14.01C129.006 14.208 129.312 14.307 129.654 14.307ZM135.868 15.108C135.31 15.108 134.83 14.973 134.428 14.703C134.026 14.427 133.717 14.046 133.501 13.56C133.285 13.068 133.177 12.498 133.177 11.85C133.177 11.202 133.285 10.635 133.501 10.149C133.717 9.657 134.026 9.276 134.428 9.006C134.83 8.73 135.31 8.592 135.868 8.592C136.426 8.592 136.903 8.73 137.299 9.006C137.701 9.276 138.007 9.657 138.217 10.149C138.433 10.635 138.541 11.202 138.541 11.85C138.541 12.498 138.433 13.068 138.217 13.56C138.007 14.046 137.701 14.427 137.299 14.703C136.903 14.973 136.426 15.108 135.868 15.108ZM135.868 14.307C136.204 14.307 136.504 14.208 136.768 14.01C137.038 13.812 137.248 13.53 137.398 13.164C137.548 12.798 137.623 12.36 137.623 11.85C137.623 11.34 137.548 10.902 137.398 10.536C137.248 10.17 137.038 9.891 136.768 9.699C136.504 9.501 136.204 9.402 135.868 9.402C135.526 9.402 135.22 9.501 134.95 9.699C134.68 9.891 134.47 10.17 134.32 10.536C134.17 10.902 134.095 11.34 134.095 11.85C134.095 12.36 134.17 12.798 134.32 13.164C134.47 13.53 134.68 13.812 134.95 14.01C135.22 14.208 135.526 14.307 135.868 14.307ZM143.755 15C143.467 15 143.218 14.955 143.008 14.865C142.798 14.775 142.636 14.625 142.522 14.415C142.408 14.205 142.351 13.92 142.351 13.56V11.229H141.568V10.464H142.351L142.459 9.33H143.251V10.464H144.538V11.229H143.251V13.569C143.251 13.827 143.305 14.004 143.413 14.1C143.521 14.19 143.707 14.235 143.971 14.235H144.493V15H143.755ZM147.477 15.108C147.051 15.108 146.667 15.009 146.325 14.811C145.989 14.613 145.722 14.337 145.524 13.983C145.332 13.623 145.236 13.209 145.236 12.741C145.236 12.261 145.335 11.844 145.533 11.49C145.731 11.13 146.001 10.851 146.343 10.653C146.685 10.455 147.069 10.356 147.495 10.356C147.927 10.356 148.311 10.455 148.647 10.653C148.983 10.851 149.247 11.127 149.439 11.481C149.637 11.835 149.736 12.252 149.736 12.732C149.736 13.212 149.637 13.629 149.439 13.983C149.247 14.337 148.98 14.613 148.638 14.811C148.296 15.009 147.909 15.108 147.477 15.108ZM147.477 14.334C147.723 14.334 147.945 14.274 148.143 14.154C148.347 14.034 148.509 13.857 148.629 13.623C148.755 13.383 148.818 13.086 148.818 12.732C148.818 12.378 148.758 12.084 148.638 11.85C148.518 11.61 148.356 11.43 148.152 11.31C147.954 11.19 147.735 11.13 147.495 11.13C147.255 11.13 147.033 11.19 146.829 11.31C146.625 11.43 146.46 11.61 146.334 11.85C146.214 12.084 146.154 12.378 146.154 12.732C146.154 13.086 146.214 13.383 146.334 13.623C146.46 13.857 146.622 14.034 146.82 14.154C147.024 14.274 147.243 14.334 147.477 14.334ZM9.457 29.088C9.043 29.088 8.677 29.034 8.359 28.926C8.041 28.824 7.795 28.665 7.621 28.449C7.447 28.233 7.36 27.969 7.36 27.657C7.36 27.495 7.396 27.33 7.468 27.162C7.54 27 7.657 26.844 7.819 26.694C7.981 26.544 8.2 26.409 8.476 26.289L8.98 26.694C8.674 26.808 8.467 26.943 8.359 27.099C8.257 27.261 8.206 27.417 8.206 27.567C8.206 27.747 8.26 27.897 8.368 28.017C8.476 28.137 8.623 28.227 8.809 28.287C9.001 28.347 9.217 28.377 9.457 28.377C9.691 28.377 9.895 28.344 10.069 28.278C10.243 28.212 10.378 28.119 10.474 27.999C10.57 27.879 10.618 27.738 10.618 27.576C10.618 27.384 10.546 27.222 10.402 27.09C10.258 26.964 9.982 26.889 9.574 26.865C9.232 26.841 8.941 26.808 8.701 26.766C8.467 26.724 8.266 26.673 8.098 26.613C7.936 26.553 7.798 26.487 7.684 26.415C7.576 26.343 7.483 26.268 7.405 26.19V25.983L8.305 25.056L9.034 25.308L8.053 26.217L8.242 25.812C8.308 25.854 8.371 25.896 8.431 25.938C8.491 25.974 8.572 26.007 8.674 26.037C8.776 26.067 8.914 26.094 9.088 26.118C9.262 26.142 9.49 26.166 9.772 26.19C10.18 26.22 10.507 26.292 10.753 26.406C11.005 26.52 11.188 26.673 11.302 26.865C11.416 27.057 11.473 27.285 11.473 27.549C11.473 27.807 11.401 28.053 11.257 28.287C11.119 28.521 10.9 28.713 10.6 28.863C10.306 29.013 9.925 29.088 9.457 29.088ZM9.457 25.605C9.073 25.605 8.746 25.533 8.476 25.389C8.212 25.245 8.008 25.05 7.864 24.804C7.726 24.558 7.657 24.285 7.657 23.985C7.657 23.679 7.726 23.406 7.864 23.166C8.008 22.92 8.215 22.725 8.485 22.581C8.755 22.431 9.079 22.356 9.457 22.356C9.835 22.356 10.156 22.431 10.42 22.581C10.69 22.725 10.894 22.92 11.032 23.166C11.176 23.406 11.248 23.679 11.248 23.985C11.248 24.285 11.176 24.558 11.032 24.804C10.894 25.05 10.69 25.245 10.42 25.389C10.156 25.533 9.835 25.605 9.457 25.605ZM9.457 24.885C9.751 24.885 9.985 24.81 10.159 24.66C10.333 24.504 10.42 24.279 10.42 23.985C10.42 23.691 10.333 23.469 10.159 23.319C9.985 23.163 9.751 23.085 9.457 23.085C9.163 23.085 8.926 23.163 8.746 23.319C8.566 23.469 8.476 23.691 8.476 23.985C8.476 24.279 8.566 24.504 8.746 24.66C8.926 24.81 9.163 24.885 9.457 24.885ZM10.195 23.175L9.979 22.464H11.842V23.085L10.195 23.175ZM14.621 27.108C14.189 27.108 13.805 27.009 13.469 26.811C13.133 26.613 12.869 26.337 12.677 25.983C12.491 25.629 12.398 25.218 12.398 24.75C12.398 24.27 12.491 23.853 12.677 23.499C12.869 23.139 13.133 22.86 13.469 22.662C13.805 22.458 14.195 22.356 14.639 22.356C15.083 22.356 15.464 22.455 15.782 22.653C16.1 22.851 16.346 23.115 16.52 23.445C16.694 23.769 16.781 24.129 16.781 24.525C16.781 24.585 16.778 24.651 16.772 24.723C16.772 24.789 16.769 24.864 16.763 24.948H13.055V24.309H15.881C15.863 23.931 15.737 23.637 15.503 23.427C15.269 23.211 14.978 23.103 14.63 23.103C14.384 23.103 14.159 23.16 13.955 23.274C13.751 23.382 13.586 23.544 13.46 23.76C13.34 23.97 13.28 24.237 13.28 24.561V24.813C13.28 25.149 13.34 25.434 13.46 25.668C13.586 25.896 13.751 26.07 13.955 26.19C14.159 26.304 14.381 26.361 14.621 26.361C14.909 26.361 15.146 26.298 15.332 26.172C15.518 26.046 15.656 25.875 15.746 25.659H16.646C16.568 25.935 16.436 26.184 16.25 26.406C16.064 26.622 15.833 26.793 15.557 26.919C15.287 27.045 14.975 27.108 14.621 27.108ZM19.5299 27C19.2419 27 18.9929 26.955 18.7829 26.865C18.5729 26.775 18.4109 26.625 18.2969 26.415C18.1829 26.205 18.1259 25.92 18.1259 25.56V23.229H17.3429V22.464H18.1259L18.2339 21.33H19.0259V22.464H20.3129V23.229H19.0259V25.569C19.0259 25.827 19.0799 26.004 19.1879 26.1C19.2959 26.19 19.4819 26.235 19.7459 26.235H20.2679V27H19.5299ZM23.8511 27V21.852C23.8511 21.54 23.9021 21.285 24.0041 21.087C24.1121 20.889 24.2681 20.745 24.4721 20.655C24.6761 20.565 24.9221 20.52 25.2101 20.52H25.7411V21.285H25.3541C25.1381 21.285 24.9821 21.33 24.8861 21.42C24.7961 21.504 24.7511 21.654 24.7511 21.87V27H23.8511ZM23.1851 23.229V22.464H25.8401V23.229H23.1851ZM26.7546 27V22.464H27.5646L27.6456 23.319C27.7476 23.115 27.8796 22.944 28.0416 22.806C28.2036 22.662 28.3926 22.551 28.6086 22.473C28.8306 22.395 29.0826 22.356 29.3646 22.356V23.31H29.0406C28.8546 23.31 28.6776 23.334 28.5096 23.382C28.3416 23.424 28.1916 23.499 28.0596 23.607C27.9336 23.715 27.8346 23.862 27.7626 24.048C27.6906 24.234 27.6546 24.465 27.6546 24.741V27H26.7546ZM32.1113 27.108C31.6793 27.108 31.2953 27.009 30.9593 26.811C30.6233 26.613 30.3593 26.337 30.1673 25.983C29.9813 25.629 29.8883 25.218 29.8883 24.75C29.8883 24.27 29.9813 23.853 30.1673 23.499C30.3593 23.139 30.6233 22.86 30.9593 22.662C31.2953 22.458 31.6853 22.356 32.1293 22.356C32.5733 22.356 32.9543 22.455 33.2723 22.653C33.5903 22.851 33.8363 23.115 34.0103 23.445C34.1843 23.769 34.2713 24.129 34.2713 24.525C34.2713 24.585 34.2683 24.651 34.2623 24.723C34.2623 24.789 34.2593 24.864 34.2533 24.948H30.5453V24.309H33.3713C33.3533 23.931 33.2273 23.637 32.9933 23.427C32.7593 23.211 32.4683 23.103 32.1203 23.103C31.8743 23.103 31.6493 23.16 31.4453 23.274C31.2413 23.382 31.0763 23.544 30.9503 23.76C30.8303 23.97 30.7703 24.237 30.7703 24.561V24.813C30.7703 25.149 30.8303 25.434 30.9503 25.668C31.0763 25.896 31.2413 26.07 31.4453 26.19C31.6493 26.304 31.8713 26.361 32.1113 26.361C32.3993 26.361 32.6363 26.298 32.8223 26.172C33.0083 26.046 33.1463 25.875 33.2363 25.659H34.1363C34.0583 25.935 33.9263 26.184 33.7403 26.406C33.5543 26.622 33.3233 26.793 33.0473 26.919C32.7773 27.045 32.4653 27.108 32.1113 27.108ZM37.3232 27.108C36.8912 27.108 36.5072 27.009 36.1712 26.811C35.8352 26.613 35.5712 26.337 35.3792 25.983C35.1932 25.629 35.1002 25.218 35.1002 24.75C35.1002 24.27 35.1932 23.853 35.3792 23.499C35.5712 23.139 35.8352 22.86 36.1712 22.662C36.5072 22.458 36.8972 22.356 37.3412 22.356C37.7852 22.356 38.1662 22.455 38.4842 22.653C38.8022 22.851 39.0482 23.115 39.2222 23.445C39.3962 23.769 39.4832 24.129 39.4832 24.525C39.4832 24.585 39.4802 24.651 39.4742 24.723C39.4742 24.789 39.4712 24.864 39.4652 24.948H35.7572V24.309H38.5832C38.5652 23.931 38.4392 23.637 38.2052 23.427C37.9712 23.211 37.6802 23.103 37.3322 23.103C37.0862 23.103 36.8612 23.16 36.6572 23.274C36.4532 23.382 36.2882 23.544 36.1622 23.76C36.0422 23.97 35.9822 24.237 35.9822 24.561V24.813C35.9822 25.149 36.0422 25.434 36.1622 25.668C36.2882 25.896 36.4532 26.07 36.6572 26.19C36.8612 26.304 37.0832 26.361 37.3232 26.361C37.6112 26.361 37.8482 26.298 38.0342 26.172C38.2202 26.046 38.3582 25.875 38.4482 25.659H39.3482C39.2702 25.935 39.1382 26.184 38.9522 26.406C38.7662 26.622 38.5352 26.793 38.2592 26.919C37.9892 27.045 37.6772 27.108 37.3232 27.108ZM44.8018 27.108C44.3698 27.108 43.9888 27.006 43.6588 26.802C43.3288 26.592 43.0708 26.31 42.8848 25.956C42.7048 25.596 42.6148 25.188 42.6148 24.732C42.6148 24.27 42.7048 23.862 42.8848 23.508C43.0708 23.154 43.3288 22.875 43.6588 22.671C43.9948 22.461 44.3788 22.356 44.8108 22.356C45.1648 22.356 45.4768 22.428 45.7468 22.572C46.0168 22.71 46.2268 22.908 46.3768 23.166V20.52H47.2768V27H46.4668L46.3768 26.298C46.2868 26.436 46.1698 26.568 46.0258 26.694C45.8818 26.814 45.7078 26.913 45.5038 26.991C45.2998 27.069 45.0658 27.108 44.8018 27.108ZM44.9458 26.325C45.2278 26.325 45.4768 26.259 45.6928 26.127C45.9088 25.995 46.0738 25.809 46.1878 25.569C46.3078 25.329 46.3678 25.05 46.3678 24.732C46.3678 24.414 46.3078 24.138 46.1878 23.904C46.0738 23.664 45.9088 23.478 45.6928 23.346C45.4768 23.208 45.2278 23.139 44.9458 23.139C44.6758 23.139 44.4328 23.208 44.2168 23.346C44.0008 23.478 43.8328 23.664 43.7128 23.904C43.5928 24.138 43.5328 24.414 43.5328 24.732C43.5328 25.05 43.5928 25.329 43.7128 25.569C43.8328 25.809 44.0008 25.995 44.2168 26.127C44.4328 26.259 44.6758 26.325 44.9458 26.325ZM50.5595 27.108C50.1275 27.108 49.7435 27.009 49.4075 26.811C49.0715 26.613 48.8075 26.337 48.6155 25.983C48.4295 25.629 48.3365 25.218 48.3365 24.75C48.3365 24.27 48.4295 23.853 48.6155 23.499C48.8075 23.139 49.0715 22.86 49.4075 22.662C49.7435 22.458 50.1335 22.356 50.5775 22.356C51.0215 22.356 51.4025 22.455 51.7205 22.653C52.0385 22.851 52.2845 23.115 52.4585 23.445C52.6325 23.769 52.7195 24.129 52.7195 24.525C52.7195 24.585 52.7165 24.651 52.7105 24.723C52.7105 24.789 52.7075 24.864 52.7015 24.948H48.9935V24.309H51.8195C51.8015 23.931 51.6755 23.637 51.4415 23.427C51.2075 23.211 50.9165 23.103 50.5685 23.103C50.3225 23.103 50.0975 23.16 49.8935 23.274C49.6895 23.382 49.5245 23.544 49.3985 23.76C49.2785 23.97 49.2185 24.237 49.2185 24.561V24.813C49.2185 25.149 49.2785 25.434 49.3985 25.668C49.5245 25.896 49.6895 26.07 49.8935 26.19C50.0975 26.304 50.3195 26.361 50.5595 26.361C50.8475 26.361 51.0845 26.298 51.2705 26.172C51.4565 26.046 51.5945 25.875 51.6845 25.659H52.5845C52.5065 25.935 52.3745 26.184 52.1885 26.406C52.0025 26.622 51.7715 26.793 51.4955 26.919C51.2255 27.045 50.9135 27.108 50.5595 27.108ZM53.7194 27V20.52H54.6194V27H53.7194ZM55.9182 27V22.464H56.8182V27H55.9182ZM56.3772 21.609C56.2032 21.609 56.0592 21.555 55.9452 21.447C55.8372 21.339 55.7832 21.201 55.7832 21.033C55.7832 20.871 55.8372 20.739 55.9452 20.637C56.0592 20.529 56.2032 20.475 56.3772 20.475C56.5452 20.475 56.6862 20.529 56.8002 20.637C56.9142 20.739 56.9712 20.871 56.9712 21.033C56.9712 21.201 56.9142 21.339 56.8002 21.447C56.6862 21.555 56.5452 21.609 56.3772 21.609ZM59.3922 27L57.6912 22.464H58.6362L59.9232 26.136L61.2192 22.464H62.1462L60.4542 27H59.3922ZM64.789 27.108C64.357 27.108 63.973 27.009 63.637 26.811C63.301 26.613 63.037 26.337 62.845 25.983C62.659 25.629 62.566 25.218 62.566 24.75C62.566 24.27 62.659 23.853 62.845 23.499C63.037 23.139 63.301 22.86 63.637 22.662C63.973 22.458 64.363 22.356 64.807 22.356C65.251 22.356 65.632 22.455 65.95 22.653C66.268 22.851 66.514 23.115 66.688 23.445C66.862 23.769 66.949 24.129 66.949 24.525C66.949 24.585 66.946 24.651 66.94 24.723C66.94 24.789 66.937 24.864 66.931 24.948H63.223V24.309H66.049C66.031 23.931 65.905 23.637 65.671 23.427C65.437 23.211 65.146 23.103 64.798 23.103C64.552 23.103 64.327 23.16 64.123 23.274C63.919 23.382 63.754 23.544 63.628 23.76C63.508 23.97 63.448 24.237 63.448 24.561V24.813C63.448 25.149 63.508 25.434 63.628 25.668C63.754 25.896 63.919 26.07 64.123 26.19C64.327 26.304 64.549 26.361 64.789 26.361C65.077 26.361 65.314 26.298 65.5 26.172C65.686 26.046 65.824 25.875 65.914 25.659H66.814C66.736 25.935 66.604 26.184 66.418 26.406C66.232 26.622 66.001 26.793 65.725 26.919C65.455 27.045 65.143 27.108 64.789 27.108ZM67.9489 27V22.464H68.7589L68.8399 23.319C68.9419 23.115 69.0739 22.944 69.2359 22.806C69.3979 22.662 69.5869 22.551 69.8029 22.473C70.0249 22.395 70.2769 22.356 70.5589 22.356V23.31H70.2349C70.0489 23.31 69.8719 23.334 69.7039 23.382C69.5359 23.424 69.3859 23.499 69.2539 23.607C69.1279 23.715 69.0289 23.862 68.9569 24.048C68.8849 24.234 68.8489 24.465 68.8489 24.741V27H67.9489ZM71.9074 28.98L73.0144 26.496H72.7534L70.9624 22.464H71.9344L73.3564 25.758L74.7874 22.464H75.7324L72.8524 28.98H71.9074Z" fill="white"/>
<defs>
<linearGradient id="paint0_linear_330_769" x1="78.5349" y1="48" x2="78.9717" y2="0.00461112" gradientUnits="userSpaceOnUse">
<stop offset="0.745192" stop-color="#0080C7"/>
<stop offset="1" stop-color="#8BD8F7"/>
</linearGradient>
</defs>
</svg>
