<svg width="157" height="48" viewBox="0 0 157 48" fill="none" xmlns="http://www.w3.org/2000/svg">
<path d="M153 0C155.209 3.22128e-08 157 1.79086 157 4V33.5654C157 35.7745 155.209 37.5654 153 37.5654H9.28516L2.98926 48V37.4355C1.26966 36.9877 9.71915e-05 35.4252 0 33.5654V4C1.35783e-06 1.79086 1.79086 3.22128e-08 4 0H153Z" fill="url(#paint0_linear_340_165)"/>
<path d="M7.252 16L9.565 9.7H10.546L12.859 16H11.896L10.051 10.78L8.197 16H7.252ZM8.296 14.443L8.548 13.723H11.509L11.761 14.443H8.296ZM17.7693 16.108C17.3853 16.108 17.0493 16.045 16.7613 15.919C16.4733 15.793 16.2453 15.616 16.0773 15.388C15.9093 15.16 15.8073 14.893 15.7713 14.587H16.6893C16.7193 14.731 16.7763 14.863 16.8603 14.983C16.9503 15.103 17.0703 15.199 17.2203 15.271C17.3763 15.343 17.5593 15.379 17.7693 15.379C17.9673 15.379 18.1293 15.352 18.2553 15.298C18.3873 15.238 18.4833 15.16 18.5433 15.064C18.6033 14.962 18.6333 14.854 18.6333 14.74C18.6333 14.572 18.5913 14.446 18.5073 14.362C18.4293 14.272 18.3093 14.203 18.1473 14.155C17.9913 14.101 17.8023 14.053 17.5803 14.011C17.3703 13.975 17.1663 13.927 16.9683 13.867C16.7763 13.801 16.6023 13.72 16.4463 13.624C16.2963 13.528 16.1763 13.408 16.0863 13.264C15.9963 13.114 15.9513 12.931 15.9513 12.715C15.9513 12.457 16.0203 12.226 16.1583 12.022C16.2963 11.812 16.4913 11.65 16.7433 11.536C17.0013 11.416 17.3043 11.356 17.6523 11.356C18.1563 11.356 18.5613 11.476 18.8673 11.716C19.1733 11.956 19.3533 12.295 19.4073 12.733H18.5343C18.5103 12.529 18.4203 12.373 18.2643 12.265C18.1083 12.151 17.9013 12.094 17.6433 12.094C17.3853 12.094 17.1873 12.145 17.0493 12.247C16.9113 12.349 16.8423 12.484 16.8423 12.652C16.8423 12.76 16.8813 12.856 16.9593 12.94C17.0373 13.024 17.1513 13.096 17.3013 13.156C17.4573 13.21 17.6463 13.261 17.8683 13.309C18.1863 13.369 18.4713 13.444 18.7233 13.534C18.9753 13.624 19.1763 13.756 19.3263 13.93C19.4763 14.104 19.5513 14.353 19.5513 14.677C19.5573 14.959 19.4853 15.208 19.3353 15.424C19.1913 15.64 18.9843 15.808 18.7143 15.928C18.4503 16.048 18.1353 16.108 17.7693 16.108ZM20.611 16V11.464H21.421L21.484 12.103C21.628 11.869 21.82 11.686 22.06 11.554C22.3 11.422 22.57 11.356 22.87 11.356C23.098 11.356 23.305 11.389 23.491 11.455C23.677 11.515 23.842 11.608 23.986 11.734C24.13 11.86 24.247 12.016 24.337 12.202C24.499 11.938 24.715 11.731 24.985 11.581C25.261 11.431 25.552 11.356 25.858 11.356C26.224 11.356 26.539 11.431 26.803 11.581C27.067 11.725 27.268 11.944 27.406 12.238C27.544 12.526 27.613 12.886 27.613 13.318V16H26.722V13.408C26.722 12.988 26.635 12.67 26.461 12.454C26.293 12.238 26.044 12.13 25.714 12.13C25.492 12.13 25.294 12.187 25.12 12.301C24.946 12.415 24.808 12.58 24.706 12.796C24.61 13.012 24.562 13.276 24.562 13.588V16H23.662V13.408C23.662 12.988 23.575 12.67 23.401 12.454C23.233 12.238 22.984 12.13 22.654 12.13C22.444 12.13 22.252 12.187 22.078 12.301C21.904 12.415 21.766 12.58 21.664 12.796C21.562 13.012 21.511 13.276 21.511 13.588V16H20.611ZM30.2791 16.108C29.9071 16.108 29.5981 16.045 29.3521 15.919C29.1061 15.793 28.9231 15.625 28.8031 15.415C28.6831 15.199 28.6231 14.968 28.6231 14.722C28.6231 14.422 28.7011 14.167 28.8571 13.957C29.0131 13.741 29.2351 13.576 29.5231 13.462C29.8111 13.348 30.1561 13.291 30.5581 13.291H31.7371C31.7371 13.027 31.6981 12.808 31.6201 12.634C31.5421 12.46 31.4251 12.331 31.2691 12.247C31.1191 12.157 30.9271 12.112 30.6931 12.112C30.4231 12.112 30.1921 12.178 30.0001 12.31C29.8081 12.436 29.6881 12.625 29.6401 12.877H28.7401C28.7761 12.559 28.8841 12.289 29.0641 12.067C29.2501 11.839 29.4871 11.665 29.7751 11.545C30.0631 11.419 30.3691 11.356 30.6931 11.356C31.1191 11.356 31.4761 11.431 31.7641 11.581C32.0521 11.731 32.2681 11.944 32.4121 12.22C32.5621 12.49 32.6371 12.814 32.6371 13.192V16H31.8541L31.7821 15.235C31.7161 15.355 31.6381 15.469 31.5481 15.577C31.4581 15.685 31.3501 15.778 31.2241 15.856C31.1041 15.934 30.9631 15.994 30.8011 16.036C30.6451 16.084 30.4711 16.108 30.2791 16.108ZM30.4501 15.379C30.6421 15.379 30.8161 15.34 30.9721 15.262C31.1281 15.184 31.2601 15.079 31.3681 14.947C31.4821 14.809 31.5661 14.656 31.6201 14.488C31.6801 14.314 31.7131 14.137 31.7191 13.957V13.93H30.6481C30.3901 13.93 30.1801 13.963 30.0181 14.029C29.8621 14.089 29.7481 14.173 29.6761 14.281C29.6041 14.389 29.5681 14.515 29.5681 14.659C29.5681 14.809 29.6011 14.938 29.6671 15.046C29.7391 15.148 29.8411 15.229 29.9731 15.289C30.1051 15.349 30.2641 15.379 30.4501 15.379ZM33.7858 16V9.52H34.6858V16H33.7858ZM35.9216 16V9.52H36.8216V16H35.9216ZM40.603 16V10.852C40.603 10.54 40.654 10.285 40.756 10.087C40.864 9.889 41.02 9.745 41.224 9.655C41.428 9.565 41.674 9.52 41.962 9.52H42.493V10.285H42.106C41.89 10.285 41.734 10.33 41.638 10.42C41.548 10.504 41.503 10.654 41.503 10.87V16H40.603ZM39.937 12.229V11.464H42.592V12.229H39.937ZM45.3828 16.108C44.9508 16.108 44.5668 16.009 44.2308 15.811C43.8948 15.613 43.6308 15.337 43.4388 14.983C43.2528 14.629 43.1598 14.218 43.1598 13.75C43.1598 13.27 43.2528 12.853 43.4388 12.499C43.6308 12.139 43.8948 11.86 44.2308 11.662C44.5668 11.458 44.9568 11.356 45.4008 11.356C45.8448 11.356 46.2258 11.455 46.5438 11.653C46.8618 11.851 47.1078 12.115 47.2818 12.445C47.4558 12.769 47.5428 13.129 47.5428 13.525C47.5428 13.585 47.5398 13.651 47.5338 13.723C47.5338 13.789 47.5308 13.864 47.5248 13.948H43.8168V13.309H46.6428C46.6248 12.931 46.4988 12.637 46.2648 12.427C46.0308 12.211 45.7398 12.103 45.3918 12.103C45.1458 12.103 44.9208 12.16 44.7168 12.274C44.5128 12.382 44.3478 12.544 44.2218 12.76C44.1018 12.97 44.0417 13.237 44.0417 13.561V13.813C44.0417 14.149 44.1018 14.434 44.2218 14.668C44.3478 14.896 44.5128 15.07 44.7168 15.19C44.9208 15.304 45.1428 15.361 45.3828 15.361C45.6708 15.361 45.9078 15.298 46.0938 15.172C46.2798 15.046 46.4178 14.875 46.5078 14.659H47.4078C47.3298 14.935 47.1978 15.184 47.0118 15.406C46.8258 15.622 46.5948 15.793 46.3188 15.919C46.0488 16.045 45.7368 16.108 45.3828 16.108ZM50.5947 16.108C50.1627 16.108 49.7787 16.009 49.4427 15.811C49.1067 15.613 48.8427 15.337 48.6507 14.983C48.4647 14.629 48.3717 14.218 48.3717 13.75C48.3717 13.27 48.4647 12.853 48.6507 12.499C48.8427 12.139 49.1067 11.86 49.4427 11.662C49.7787 11.458 50.1687 11.356 50.6127 11.356C51.0567 11.356 51.4377 11.455 51.7557 11.653C52.0737 11.851 52.3197 12.115 52.4937 12.445C52.6677 12.769 52.7547 13.129 52.7547 13.525C52.7547 13.585 52.7517 13.651 52.7457 13.723C52.7457 13.789 52.7427 13.864 52.7367 13.948H49.0287V13.309H51.8547C51.8367 12.931 51.7107 12.637 51.4767 12.427C51.2427 12.211 50.9517 12.103 50.6037 12.103C50.3577 12.103 50.1327 12.16 49.9287 12.274C49.7247 12.382 49.5597 12.544 49.4337 12.76C49.3137 12.97 49.2537 13.237 49.2537 13.561V13.813C49.2537 14.149 49.3137 14.434 49.4337 14.668C49.5597 14.896 49.7247 15.07 49.9287 15.19C50.1327 15.304 50.3547 15.361 50.5947 15.361C50.8827 15.361 51.1197 15.298 51.3057 15.172C51.4917 15.046 51.6297 14.875 51.7197 14.659H52.6197C52.5417 14.935 52.4097 15.184 52.2237 15.406C52.0377 15.622 51.8067 15.793 51.5307 15.919C51.2607 16.045 50.9487 16.108 50.5947 16.108ZM56.1203 16V11.464H57.0203V16H56.1203ZM56.5793 10.609C56.4053 10.609 56.2613 10.555 56.1473 10.447C56.0393 10.339 55.9853 10.201 55.9853 10.033C55.9853 9.871 56.0393 9.739 56.1473 9.637C56.2613 9.529 56.4053 9.475 56.5793 9.475C56.7473 9.475 56.8883 9.529 57.0023 9.637C57.1163 9.739 57.1733 9.871 57.1733 10.033C57.1733 10.201 57.1163 10.339 57.0023 10.447C56.8883 10.555 56.7473 10.609 56.5793 10.609ZM60.0623 16.108C59.6783 16.108 59.3423 16.045 59.0543 15.919C58.7663 15.793 58.5383 15.616 58.3703 15.388C58.2023 15.16 58.1003 14.893 58.0643 14.587H58.9823C59.0123 14.731 59.0693 14.863 59.1533 14.983C59.2433 15.103 59.3633 15.199 59.5133 15.271C59.6693 15.343 59.8523 15.379 60.0623 15.379C60.2603 15.379 60.4223 15.352 60.5483 15.298C60.6803 15.238 60.7763 15.16 60.8363 15.064C60.8963 14.962 60.9263 14.854 60.9263 14.74C60.9263 14.572 60.8843 14.446 60.8003 14.362C60.7223 14.272 60.6023 14.203 60.4403 14.155C60.2843 14.101 60.0953 14.053 59.8733 14.011C59.6633 13.975 59.4593 13.927 59.2613 13.867C59.0693 13.801 58.8953 13.72 58.7393 13.624C58.5893 13.528 58.4693 13.408 58.3793 13.264C58.2893 13.114 58.2443 12.931 58.2443 12.715C58.2443 12.457 58.3133 12.226 58.4513 12.022C58.5893 11.812 58.7843 11.65 59.0363 11.536C59.2943 11.416 59.5973 11.356 59.9453 11.356C60.4493 11.356 60.8543 11.476 61.1603 11.716C61.4663 11.956 61.6463 12.295 61.7003 12.733H60.8273C60.8033 12.529 60.7133 12.373 60.5573 12.265C60.4013 12.151 60.1943 12.094 59.9363 12.094C59.6783 12.094 59.4803 12.145 59.3423 12.247C59.2043 12.349 59.1353 12.484 59.1353 12.652C59.1353 12.76 59.1743 12.856 59.2523 12.94C59.3303 13.024 59.4443 13.096 59.5943 13.156C59.7503 13.21 59.9393 13.261 60.1613 13.309C60.4793 13.369 60.7643 13.444 61.0163 13.534C61.2683 13.624 61.4693 13.756 61.6193 13.93C61.7693 14.104 61.8443 14.353 61.8443 14.677C61.8503 14.959 61.7783 15.208 61.6283 15.424C61.4843 15.64 61.2773 15.808 61.0073 15.928C60.7433 16.048 60.4283 16.108 60.0623 16.108ZM67.3037 16.108C66.8657 16.108 66.4757 16.009 66.1337 15.811C65.7917 15.607 65.5217 15.328 65.3237 14.974C65.1317 14.62 65.0357 14.209 65.0357 13.741C65.0357 13.267 65.1317 12.853 65.3237 12.499C65.5217 12.139 65.7917 11.86 66.1337 11.662C66.4757 11.458 66.8657 11.356 67.3037 11.356C67.8557 11.356 68.3177 11.5 68.6897 11.788C69.0617 12.076 69.2987 12.466 69.4007 12.958H68.4647C68.4047 12.694 68.2667 12.49 68.0507 12.346C67.8407 12.202 67.5887 12.13 67.2947 12.13C67.0547 12.13 66.8327 12.193 66.6287 12.319C66.4247 12.439 66.2597 12.619 66.1337 12.859C66.0137 13.093 65.9537 13.384 65.9537 13.732C65.9537 13.99 65.9897 14.221 66.0617 14.425C66.1337 14.623 66.2297 14.791 66.3497 14.929C66.4757 15.067 66.6197 15.172 66.7817 15.244C66.9437 15.31 67.1147 15.343 67.2947 15.343C67.4927 15.343 67.6697 15.313 67.8257 15.253C67.9877 15.187 68.1227 15.091 68.2307 14.965C68.3447 14.839 68.4227 14.689 68.4647 14.515H69.4007C69.2987 14.995 69.0617 15.382 68.6897 15.676C68.3177 15.964 67.8557 16.108 67.3037 16.108ZM70.4538 16V9.52H71.3538V12.202C71.5038 11.938 71.7108 11.731 71.9748 11.581C72.2448 11.431 72.5418 11.356 72.8658 11.356C73.2258 11.356 73.5348 11.431 73.7928 11.581C74.0508 11.725 74.2488 11.944 74.3868 12.238C74.5248 12.526 74.5938 12.889 74.5938 13.327V16H73.7028V13.417C73.7028 12.997 73.6128 12.679 73.4328 12.463C73.2528 12.241 72.9858 12.13 72.6318 12.13C72.3918 12.13 72.1758 12.187 71.9838 12.301C71.7918 12.415 71.6388 12.583 71.5248 12.805C71.4108 13.021 71.3538 13.285 71.3538 13.597V16H70.4538ZM77.2478 16.108C76.8758 16.108 76.5668 16.045 76.3208 15.919C76.0748 15.793 75.8918 15.625 75.7718 15.415C75.6518 15.199 75.5918 14.968 75.5918 14.722C75.5918 14.422 75.6698 14.167 75.8258 13.957C75.9818 13.741 76.2038 13.576 76.4918 13.462C76.7798 13.348 77.1248 13.291 77.5268 13.291H78.7058C78.7058 13.027 78.6668 12.808 78.5888 12.634C78.5108 12.46 78.3938 12.331 78.2378 12.247C78.0878 12.157 77.8958 12.112 77.6618 12.112C77.3918 12.112 77.1608 12.178 76.9688 12.31C76.7768 12.436 76.6568 12.625 76.6088 12.877H75.7088C75.7448 12.559 75.8528 12.289 76.0328 12.067C76.2188 11.839 76.4558 11.665 76.7438 11.545C77.0318 11.419 77.3378 11.356 77.6618 11.356C78.0878 11.356 78.4448 11.431 78.7328 11.581C79.0208 11.731 79.2368 11.944 79.3808 12.22C79.5308 12.49 79.6058 12.814 79.6058 13.192V16H78.8228L78.7508 15.235C78.6848 15.355 78.6068 15.469 78.5168 15.577C78.4268 15.685 78.3188 15.778 78.1928 15.856C78.0728 15.934 77.9318 15.994 77.7698 16.036C77.6138 16.084 77.4398 16.108 77.2478 16.108ZM77.4188 15.379C77.6108 15.379 77.7848 15.34 77.9408 15.262C78.0968 15.184 78.2288 15.079 78.3368 14.947C78.4508 14.809 78.5348 14.656 78.5888 14.488C78.6488 14.314 78.6818 14.137 78.6878 13.957V13.93H77.6168C77.3588 13.93 77.1488 13.963 76.9868 14.029C76.8308 14.089 76.7168 14.173 76.6448 14.281C76.5728 14.389 76.5368 14.515 76.5368 14.659C76.5368 14.809 76.5698 14.938 76.6358 15.046C76.7078 15.148 76.8098 15.229 76.9418 15.289C77.0738 15.349 77.2328 15.379 77.4188 15.379ZM80.7546 16V11.464H81.5646L81.6456 12.319C81.7476 12.115 81.8796 11.944 82.0416 11.806C82.2036 11.662 82.3926 11.551 82.6086 11.473C82.8306 11.395 83.0826 11.356 83.3646 11.356V12.31H83.0406C82.8546 12.31 82.6776 12.334 82.5096 12.382C82.3416 12.424 82.1916 12.499 82.0596 12.607C81.9336 12.715 81.8346 12.862 81.7626 13.048C81.6906 13.234 81.6546 13.465 81.6546 13.741V16H80.7546ZM85.9306 18.088C85.5166 18.088 85.1506 18.034 84.8326 17.926C84.5146 17.824 84.2686 17.665 84.0946 17.449C83.9206 17.233 83.8336 16.969 83.8336 16.657C83.8336 16.495 83.8696 16.33 83.9416 16.162C84.0136 16 84.1306 15.844 84.2926 15.694C84.4546 15.544 84.6736 15.409 84.9496 15.289L85.4536 15.694C85.1476 15.808 84.9406 15.943 84.8326 16.099C84.7306 16.261 84.6796 16.417 84.6796 16.567C84.6796 16.747 84.7336 16.897 84.8416 17.017C84.9496 17.137 85.0966 17.227 85.2826 17.287C85.4746 17.347 85.6906 17.377 85.9306 17.377C86.1646 17.377 86.3686 17.344 86.5426 17.278C86.7166 17.212 86.8516 17.119 86.9476 16.999C87.0436 16.879 87.0916 16.738 87.0916 16.576C87.0916 16.384 87.0196 16.222 86.8756 16.09C86.7316 15.964 86.4556 15.889 86.0476 15.865C85.7056 15.841 85.4146 15.808 85.1746 15.766C84.9406 15.724 84.7396 15.673 84.5716 15.613C84.4096 15.553 84.2716 15.487 84.1576 15.415C84.0496 15.343 83.9566 15.268 83.8786 15.19V14.983L84.7786 14.056L85.5076 14.308L84.5266 15.217L84.7156 14.812C84.7816 14.854 84.8446 14.896 84.9046 14.938C84.9646 14.974 85.0456 15.007 85.1476 15.037C85.2496 15.067 85.3876 15.094 85.5616 15.118C85.7356 15.142 85.9636 15.166 86.2456 15.19C86.6536 15.22 86.9806 15.292 87.2266 15.406C87.4786 15.52 87.6616 15.673 87.7756 15.865C87.8896 16.057 87.9466 16.285 87.9466 16.549C87.9466 16.807 87.8746 17.053 87.7306 17.287C87.5926 17.521 87.3736 17.713 87.0736 17.863C86.7796 18.013 86.3986 18.088 85.9306 18.088ZM85.9306 14.605C85.5466 14.605 85.2196 14.533 84.9496 14.389C84.6856 14.245 84.4816 14.05 84.3376 13.804C84.1996 13.558 84.1306 13.285 84.1306 12.985C84.1306 12.679 84.1996 12.406 84.3376 12.166C84.4816 11.92 84.6886 11.725 84.9586 11.581C85.2286 11.431 85.5526 11.356 85.9306 11.356C86.3086 11.356 86.6296 11.431 86.8936 11.581C87.1636 11.725 87.3676 11.92 87.5056 12.166C87.6496 12.406 87.7216 12.679 87.7216 12.985C87.7216 13.285 87.6496 13.558 87.5056 13.804C87.3676 14.05 87.1636 14.245 86.8936 14.389C86.6296 14.533 86.3086 14.605 85.9306 14.605ZM85.9306 13.885C86.2246 13.885 86.4586 13.81 86.6326 13.66C86.8066 13.504 86.8936 13.279 86.8936 12.985C86.8936 12.691 86.8066 12.469 86.6326 12.319C86.4586 12.163 86.2246 12.085 85.9306 12.085C85.6366 12.085 85.3996 12.163 85.2196 12.319C85.0396 12.469 84.9496 12.691 84.9496 12.985C84.9496 13.279 85.0396 13.504 85.2196 13.66C85.3996 13.81 85.6366 13.885 85.9306 13.885ZM86.6686 12.175L86.4526 11.464H88.3156V12.085L86.6686 12.175ZM91.0947 16.108C90.6627 16.108 90.2787 16.009 89.9427 15.811C89.6067 15.613 89.3427 15.337 89.1507 14.983C88.9647 14.629 88.8717 14.218 88.8717 13.75C88.8717 13.27 88.9647 12.853 89.1507 12.499C89.3427 12.139 89.6067 11.86 89.9427 11.662C90.2787 11.458 90.6687 11.356 91.1127 11.356C91.5567 11.356 91.9377 11.455 92.2557 11.653C92.5737 11.851 92.8197 12.115 92.9937 12.445C93.1677 12.769 93.2547 13.129 93.2547 13.525C93.2547 13.585 93.2517 13.651 93.2457 13.723C93.2457 13.789 93.2427 13.864 93.2367 13.948H89.5287V13.309H92.3547C92.3367 12.931 92.2107 12.637 91.9767 12.427C91.7427 12.211 91.4517 12.103 91.1037 12.103C90.8577 12.103 90.6327 12.16 90.4287 12.274C90.2247 12.382 90.0597 12.544 89.9337 12.76C89.8137 12.97 89.7537 13.237 89.7537 13.561V13.813C89.7537 14.149 89.8137 14.434 89.9337 14.668C90.0597 14.896 90.2247 15.07 90.4287 15.19C90.6327 15.304 90.8547 15.361 91.0947 15.361C91.3827 15.361 91.6197 15.298 91.8057 15.172C91.9917 15.046 92.1297 14.875 92.2197 14.659H93.1197C93.0417 14.935 92.9097 15.184 92.7237 15.406C92.5377 15.622 92.3067 15.793 92.0307 15.919C91.7607 16.045 91.4487 16.108 91.0947 16.108ZM96.2706 16.108C95.8386 16.108 95.4576 16.006 95.1276 15.802C94.7976 15.592 94.5396 15.31 94.3536 14.956C94.1736 14.596 94.0836 14.188 94.0836 13.732C94.0836 13.27 94.1736 12.862 94.3536 12.508C94.5396 12.154 94.7976 11.875 95.1276 11.671C95.4636 11.461 95.8476 11.356 96.2796 11.356C96.6336 11.356 96.9456 11.428 97.2156 11.572C97.4856 11.71 97.6956 11.908 97.8456 12.166V9.52H98.7456V16H97.9356L97.8456 15.298C97.7556 15.436 97.6386 15.568 97.4946 15.694C97.3506 15.814 97.1766 15.913 96.9726 15.991C96.7686 16.069 96.5346 16.108 96.2706 16.108ZM96.4146 15.325C96.6966 15.325 96.9456 15.259 97.1616 15.127C97.3776 14.995 97.5426 14.809 97.6566 14.569C97.7766 14.329 97.8366 14.05 97.8366 13.732C97.8366 13.414 97.7766 13.138 97.6566 12.904C97.5426 12.664 97.3776 12.478 97.1616 12.346C96.9456 12.208 96.6966 12.139 96.4146 12.139C96.1446 12.139 95.9016 12.208 95.6856 12.346C95.4696 12.478 95.3016 12.664 95.1816 12.904C95.0616 13.138 95.0016 13.414 95.0016 13.732C95.0016 14.05 95.0616 14.329 95.1816 14.569C95.3016 14.809 95.4696 14.995 95.6856 15.127C95.9016 15.259 96.1446 15.325 96.4146 15.325ZM104.151 16C103.863 16 103.614 15.955 103.404 15.865C103.194 15.775 103.032 15.625 102.918 15.415C102.804 15.205 102.747 14.92 102.747 14.56V12.229H101.964V11.464H102.747L102.855 10.33H103.647V11.464H104.934V12.229H103.647V14.569C103.647 14.827 103.701 15.004 103.809 15.1C103.917 15.19 104.103 15.235 104.367 15.235H104.889V16H104.151ZM107.873 16.108C107.447 16.108 107.063 16.009 106.721 15.811C106.385 15.613 106.118 15.337 105.92 14.983C105.728 14.623 105.632 14.209 105.632 13.741C105.632 13.261 105.731 12.844 105.929 12.49C106.127 12.13 106.397 11.851 106.739 11.653C107.081 11.455 107.465 11.356 107.891 11.356C108.323 11.356 108.707 11.455 109.043 11.653C109.379 11.851 109.643 12.127 109.835 12.481C110.033 12.835 110.132 13.252 110.132 13.732C110.132 14.212 110.033 14.629 109.835 14.983C109.643 15.337 109.376 15.613 109.034 15.811C108.692 16.009 108.305 16.108 107.873 16.108ZM107.873 15.334C108.119 15.334 108.341 15.274 108.539 15.154C108.743 15.034 108.905 14.857 109.025 14.623C109.151 14.383 109.214 14.086 109.214 13.732C109.214 13.378 109.154 13.084 109.034 12.85C108.914 12.61 108.752 12.43 108.548 12.31C108.35 12.19 108.131 12.13 107.891 12.13C107.651 12.13 107.429 12.19 107.225 12.31C107.021 12.43 106.856 12.61 106.73 12.85C106.61 13.084 106.55 13.378 106.55 13.732C106.55 14.086 106.61 14.383 106.73 14.623C106.856 14.857 107.018 15.034 107.216 15.154C107.42 15.274 107.639 15.334 107.873 15.334ZM113.494 16V11.464H114.304L114.367 12.103C114.511 11.869 114.703 11.686 114.943 11.554C115.183 11.422 115.453 11.356 115.753 11.356C115.981 11.356 116.188 11.389 116.374 11.455C116.56 11.515 116.725 11.608 116.869 11.734C117.013 11.86 117.13 12.016 117.22 12.202C117.382 11.938 117.598 11.731 117.868 11.581C118.144 11.431 118.435 11.356 118.741 11.356C119.107 11.356 119.422 11.431 119.686 11.581C119.95 11.725 120.151 11.944 120.289 12.238C120.427 12.526 120.496 12.886 120.496 13.318V16H119.605V13.408C119.605 12.988 119.518 12.67 119.344 12.454C119.176 12.238 118.927 12.13 118.597 12.13C118.375 12.13 118.177 12.187 118.003 12.301C117.829 12.415 117.691 12.58 117.589 12.796C117.493 13.012 117.445 13.276 117.445 13.588V16H116.545V13.408C116.545 12.988 116.458 12.67 116.284 12.454C116.116 12.238 115.867 12.13 115.537 12.13C115.327 12.13 115.135 12.187 114.961 12.301C114.787 12.415 114.649 12.58 114.547 12.796C114.445 13.012 114.394 13.276 114.394 13.588V16H113.494ZM123.162 16.108C122.79 16.108 122.481 16.045 122.235 15.919C121.989 15.793 121.806 15.625 121.686 15.415C121.566 15.199 121.506 14.968 121.506 14.722C121.506 14.422 121.584 14.167 121.74 13.957C121.896 13.741 122.118 13.576 122.406 13.462C122.694 13.348 123.039 13.291 123.441 13.291H124.62C124.62 13.027 124.581 12.808 124.503 12.634C124.425 12.46 124.308 12.331 124.152 12.247C124.002 12.157 123.81 12.112 123.576 12.112C123.306 12.112 123.075 12.178 122.883 12.31C122.691 12.436 122.571 12.625 122.523 12.877H121.623C121.659 12.559 121.767 12.289 121.947 12.067C122.133 11.839 122.37 11.665 122.658 11.545C122.946 11.419 123.252 11.356 123.576 11.356C124.002 11.356 124.359 11.431 124.647 11.581C124.935 11.731 125.151 11.944 125.295 12.22C125.445 12.49 125.52 12.814 125.52 13.192V16H124.737L124.665 15.235C124.599 15.355 124.521 15.469 124.431 15.577C124.341 15.685 124.233 15.778 124.107 15.856C123.987 15.934 123.846 15.994 123.684 16.036C123.528 16.084 123.354 16.108 123.162 16.108ZM123.333 15.379C123.525 15.379 123.699 15.34 123.855 15.262C124.011 15.184 124.143 15.079 124.251 14.947C124.365 14.809 124.449 14.656 124.503 14.488C124.563 14.314 124.596 14.137 124.602 13.957V13.93H123.531C123.273 13.93 123.063 13.963 122.901 14.029C122.745 14.089 122.631 14.173 122.559 14.281C122.487 14.389 122.451 14.515 122.451 14.659C122.451 14.809 122.484 14.938 122.55 15.046C122.622 15.148 122.724 15.229 122.856 15.289C122.988 15.349 123.147 15.379 123.333 15.379ZM126.732 16V11.464H127.632V16H126.732ZM127.191 10.609C127.017 10.609 126.873 10.555 126.759 10.447C126.651 10.339 126.597 10.201 126.597 10.033C126.597 9.871 126.651 9.739 126.759 9.637C126.873 9.529 127.017 9.475 127.191 9.475C127.359 9.475 127.5 9.529 127.614 9.637C127.728 9.739 127.785 9.871 127.785 10.033C127.785 10.201 127.728 10.339 127.614 10.447C127.5 10.555 127.359 10.609 127.191 10.609ZM128.919 16V11.464H129.729L129.783 12.238C129.927 11.968 130.131 11.755 130.395 11.599C130.659 11.437 130.962 11.356 131.304 11.356C131.664 11.356 131.973 11.428 132.231 11.572C132.489 11.716 132.69 11.935 132.834 12.229C132.978 12.517 133.05 12.88 133.05 13.318V16H132.15V13.408C132.15 12.988 132.057 12.67 131.871 12.454C131.685 12.238 131.415 12.13 131.061 12.13C130.827 12.13 130.617 12.187 130.431 12.301C130.245 12.409 130.095 12.571 129.981 12.787C129.873 13.003 129.819 13.267 129.819 13.579V16H128.919ZM136.073 16C135.785 16 135.536 15.955 135.326 15.865C135.116 15.775 134.954 15.625 134.84 15.415C134.726 15.205 134.669 14.92 134.669 14.56V12.229H133.886V11.464H134.669L134.777 10.33H135.569V11.464H136.856V12.229H135.569V14.569C135.569 14.827 135.623 15.004 135.731 15.1C135.839 15.19 136.025 15.235 136.289 15.235H136.811V16H136.073ZM139.351 16.108C138.979 16.108 138.67 16.045 138.424 15.919C138.178 15.793 137.995 15.625 137.875 15.415C137.755 15.199 137.695 14.968 137.695 14.722C137.695 14.422 137.773 14.167 137.929 13.957C138.085 13.741 138.307 13.576 138.595 13.462C138.883 13.348 139.228 13.291 139.63 13.291H140.809C140.809 13.027 140.77 12.808 140.692 12.634C140.614 12.46 140.497 12.331 140.341 12.247C140.191 12.157 139.999 12.112 139.765 12.112C139.495 12.112 139.264 12.178 139.072 12.31C138.88 12.436 138.76 12.625 138.712 12.877H137.812C137.848 12.559 137.956 12.289 138.136 12.067C138.322 11.839 138.559 11.665 138.847 11.545C139.135 11.419 139.441 11.356 139.765 11.356C140.191 11.356 140.548 11.431 140.836 11.581C141.124 11.731 141.34 11.944 141.484 12.22C141.634 12.49 141.709 12.814 141.709 13.192V16H140.926L140.854 15.235C140.788 15.355 140.71 15.469 140.62 15.577C140.53 15.685 140.422 15.778 140.296 15.856C140.176 15.934 140.035 15.994 139.873 16.036C139.717 16.084 139.543 16.108 139.351 16.108ZM139.522 15.379C139.714 15.379 139.888 15.34 140.044 15.262C140.2 15.184 140.332 15.079 140.44 14.947C140.554 14.809 140.638 14.656 140.692 14.488C140.752 14.314 140.785 14.137 140.791 13.957V13.93H139.72C139.462 13.93 139.252 13.963 139.09 14.029C138.934 14.089 138.82 14.173 138.748 14.281C138.676 14.389 138.64 14.515 138.64 14.659C138.64 14.809 138.673 14.938 138.739 15.046C138.811 15.148 138.913 15.229 139.045 15.289C139.177 15.349 139.336 15.379 139.522 15.379ZM142.921 16V11.464H143.821V16H142.921ZM143.38 10.609C143.206 10.609 143.062 10.555 142.948 10.447C142.84 10.339 142.786 10.201 142.786 10.033C142.786 9.871 142.84 9.739 142.948 9.637C143.062 9.529 143.206 9.475 143.38 9.475C143.548 9.475 143.689 9.529 143.803 9.637C143.917 9.739 143.974 9.871 143.974 10.033C143.974 10.201 143.917 10.339 143.803 10.447C143.689 10.555 143.548 10.609 143.38 10.609ZM145.108 16V11.464H145.918L145.972 12.238C146.116 11.968 146.32 11.755 146.584 11.599C146.848 11.437 147.151 11.356 147.493 11.356C147.853 11.356 148.162 11.428 148.42 11.572C148.678 11.716 148.879 11.935 149.023 12.229C149.167 12.517 149.239 12.88 149.239 13.318V16H148.339V13.408C148.339 12.988 148.246 12.67 148.06 12.454C147.874 12.238 147.604 12.13 147.25 12.13C147.016 12.13 146.806 12.187 146.62 12.301C146.434 12.409 146.284 12.571 146.17 12.787C146.062 13.003 146.008 13.267 146.008 13.579V16H145.108ZM9.115 28.108C8.743 28.108 8.434 28.045 8.188 27.919C7.942 27.793 7.759 27.625 7.639 27.415C7.519 27.199 7.459 26.968 7.459 26.722C7.459 26.422 7.537 26.167 7.693 25.957C7.849 25.741 8.071 25.576 8.359 25.462C8.647 25.348 8.992 25.291 9.394 25.291H10.573C10.573 25.027 10.534 24.808 10.456 24.634C10.378 24.46 10.261 24.331 10.105 24.247C9.955 24.157 9.763 24.112 9.529 24.112C9.259 24.112 9.028 24.178 8.836 24.31C8.644 24.436 8.524 24.625 8.476 24.877H7.576C7.612 24.559 7.72 24.289 7.9 24.067C8.086 23.839 8.323 23.665 8.611 23.545C8.899 23.419 9.205 23.356 9.529 23.356C9.955 23.356 10.312 23.431 10.6 23.581C10.888 23.731 11.104 23.944 11.248 24.22C11.398 24.49 11.473 24.814 11.473 25.192V28H10.69L10.618 27.235C10.552 27.355 10.474 27.469 10.384 27.577C10.294 27.685 10.186 27.778 10.06 27.856C9.94 27.934 9.799 27.994 9.637 28.036C9.481 28.084 9.307 28.108 9.115 28.108ZM9.286 27.379C9.478 27.379 9.652 27.34 9.808 27.262C9.964 27.184 10.096 27.079 10.204 26.947C10.318 26.809 10.402 26.656 10.456 26.488C10.516 26.314 10.549 26.137 10.555 25.957V25.93H9.484C9.226 25.93 9.016 25.963 8.854 26.029C8.698 26.089 8.584 26.173 8.512 26.281C8.44 26.389 8.404 26.515 8.404 26.659C8.404 26.809 8.437 26.938 8.503 27.046C8.575 27.148 8.677 27.229 8.809 27.289C8.941 27.349 9.1 27.379 9.286 27.379ZM12.6218 28V23.464H13.4318L13.4858 24.238C13.6298 23.968 13.8338 23.755 14.0978 23.599C14.3618 23.437 14.6648 23.356 15.0068 23.356C15.3668 23.356 15.6758 23.428 15.9338 23.572C16.1918 23.716 16.3928 23.935 16.5368 24.229C16.6808 24.517 16.7528 24.88 16.7528 25.318V28H15.8528V25.408C15.8528 24.988 15.7598 24.67 15.5738 24.454C15.3878 24.238 15.1178 24.13 14.7638 24.13C14.5298 24.13 14.3198 24.187 14.1338 24.301C13.9478 24.409 13.7978 24.571 13.6838 24.787C13.5758 25.003 13.5218 25.267 13.5218 25.579V28H12.6218ZM19.92 28.108C19.488 28.108 19.107 28.006 18.777 27.802C18.447 27.592 18.189 27.31 18.003 26.956C17.823 26.596 17.733 26.188 17.733 25.732C17.733 25.27 17.823 24.862 18.003 24.508C18.189 24.154 18.447 23.875 18.777 23.671C19.113 23.461 19.497 23.356 19.929 23.356C20.283 23.356 20.595 23.428 20.865 23.572C21.135 23.71 21.345 23.908 21.495 24.166V21.52H22.395V28H21.585L21.495 27.298C21.405 27.436 21.288 27.568 21.144 27.694C21 27.814 20.826 27.913 20.622 27.991C20.418 28.069 20.184 28.108 19.92 28.108ZM20.064 27.325C20.346 27.325 20.595 27.259 20.811 27.127C21.027 26.995 21.192 26.809 21.306 26.569C21.426 26.329 21.486 26.05 21.486 25.732C21.486 25.414 21.426 25.138 21.306 24.904C21.192 24.664 21.027 24.478 20.811 24.346C20.595 24.208 20.346 24.139 20.064 24.139C19.794 24.139 19.551 24.208 19.335 24.346C19.119 24.478 18.951 24.664 18.831 24.904C18.711 25.138 18.651 25.414 18.651 25.732C18.651 26.05 18.711 26.329 18.831 26.569C18.951 26.809 19.119 26.995 19.335 27.127C19.551 27.259 19.794 27.325 20.064 27.325ZM25.9914 28V23.464H26.8914V28H25.9914ZM26.4504 22.609C26.2764 22.609 26.1324 22.555 26.0184 22.447C25.9104 22.339 25.8564 22.201 25.8564 22.033C25.8564 21.871 25.9104 21.739 26.0184 21.637C26.1324 21.529 26.2764 21.475 26.4504 21.475C26.6184 21.475 26.7594 21.529 26.8734 21.637C26.9874 21.739 27.0444 21.871 27.0444 22.033C27.0444 22.201 26.9874 22.339 26.8734 22.447C26.7594 22.555 26.6184 22.609 26.4504 22.609ZM28.1784 28V23.464H28.9884L29.0514 24.103C29.1954 23.869 29.3874 23.686 29.6274 23.554C29.8674 23.422 30.1374 23.356 30.4374 23.356C30.6654 23.356 30.8724 23.389 31.0584 23.455C31.2444 23.515 31.4094 23.608 31.5534 23.734C31.6974 23.86 31.8144 24.016 31.9044 24.202C32.0664 23.938 32.2824 23.731 32.5524 23.581C32.8284 23.431 33.1194 23.356 33.4254 23.356C33.7914 23.356 34.1064 23.431 34.3704 23.581C34.6344 23.725 34.8354 23.944 34.9734 24.238C35.1114 24.526 35.1804 24.886 35.1804 25.318V28H34.2894V25.408C34.2894 24.988 34.2024 24.67 34.0284 24.454C33.8604 24.238 33.6114 24.13 33.2814 24.13C33.0594 24.13 32.8614 24.187 32.6874 24.301C32.5134 24.415 32.3754 24.58 32.2734 24.796C32.1774 25.012 32.1294 25.276 32.1294 25.588V28H31.2294V25.408C31.2294 24.988 31.1424 24.67 30.9684 24.454C30.8004 24.238 30.5514 24.13 30.2214 24.13C30.0114 24.13 29.8194 24.187 29.6454 24.301C29.4714 24.415 29.3334 24.58 29.2314 24.796C29.1294 25.012 29.0784 25.276 29.0784 25.588V28H28.1784ZM36.3434 29.98V23.464H37.1534L37.2434 24.166C37.3394 24.028 37.4594 23.899 37.6034 23.779C37.7474 23.653 37.9184 23.551 38.1164 23.473C38.3204 23.395 38.5574 23.356 38.8274 23.356C39.2594 23.356 39.6374 23.461 39.9614 23.671C40.2914 23.881 40.5464 24.166 40.7264 24.526C40.9124 24.88 41.0054 25.285 41.0054 25.741C41.0054 26.197 40.9124 26.605 40.7264 26.965C40.5404 27.319 40.2824 27.598 39.9524 27.802C39.6284 28.006 39.2504 28.108 38.8184 28.108C38.4644 28.108 38.1524 28.039 37.8824 27.901C37.6124 27.757 37.3994 27.559 37.2434 27.307V29.98H36.3434ZM38.6744 27.325C38.9504 27.325 39.1934 27.259 39.4034 27.127C39.6194 26.995 39.7874 26.809 39.9074 26.569C40.0334 26.329 40.0964 26.05 40.0964 25.732C40.0964 25.414 40.0334 25.138 39.9074 24.904C39.7874 24.664 39.6194 24.478 39.4034 24.346C39.1934 24.208 38.9504 24.139 38.6744 24.139C38.3924 24.139 38.1434 24.208 37.9274 24.346C37.7174 24.478 37.5524 24.664 37.4324 24.904C37.3124 25.138 37.2524 25.414 37.2524 25.732C37.2524 26.05 37.3124 26.329 37.4324 26.569C37.5524 26.809 37.7174 26.995 37.9274 27.127C38.1434 27.259 38.3924 27.325 38.6744 27.325ZM42.0563 28V23.464H42.8663L42.9473 24.319C43.0493 24.115 43.1813 23.944 43.3433 23.806C43.5053 23.662 43.6943 23.551 43.9103 23.473C44.1323 23.395 44.3843 23.356 44.6663 23.356V24.31H44.3423C44.1563 24.31 43.9793 24.334 43.8113 24.382C43.6433 24.424 43.4933 24.499 43.3613 24.607C43.2353 24.715 43.1363 24.862 43.0643 25.048C42.9923 25.234 42.9563 25.465 42.9563 25.741V28H42.0563ZM47.431 28.108C47.005 28.108 46.621 28.009 46.279 27.811C45.943 27.613 45.676 27.337 45.478 26.983C45.286 26.623 45.19 26.209 45.19 25.741C45.19 25.261 45.289 24.844 45.487 24.49C45.685 24.13 45.955 23.851 46.297 23.653C46.639 23.455 47.023 23.356 47.449 23.356C47.881 23.356 48.265 23.455 48.601 23.653C48.937 23.851 49.201 24.127 49.393 24.481C49.591 24.835 49.69 25.252 49.69 25.732C49.69 26.212 49.591 26.629 49.393 26.983C49.201 27.337 48.934 27.613 48.592 27.811C48.25 28.009 47.863 28.108 47.431 28.108ZM47.431 27.334C47.677 27.334 47.899 27.274 48.097 27.154C48.301 27.034 48.463 26.857 48.583 26.623C48.709 26.383 48.772 26.086 48.772 25.732C48.772 25.378 48.712 25.084 48.592 24.85C48.472 24.61 48.31 24.43 48.106 24.31C47.908 24.19 47.689 24.13 47.449 24.13C47.209 24.13 46.987 24.19 46.783 24.31C46.579 24.43 46.414 24.61 46.288 24.85C46.168 25.084 46.108 25.378 46.108 25.732C46.108 26.086 46.168 26.383 46.288 26.623C46.414 26.857 46.576 27.034 46.774 27.154C46.978 27.274 47.197 27.334 47.431 27.334ZM51.816 28L50.115 23.464H51.06L52.347 27.136L53.643 23.464H54.57L52.878 28H51.816ZM57.2128 28.108C56.7808 28.108 56.3968 28.009 56.0608 27.811C55.7248 27.613 55.4608 27.337 55.2688 26.983C55.0828 26.629 54.9898 26.218 54.9898 25.75C54.9898 25.27 55.0828 24.853 55.2688 24.499C55.4608 24.139 55.7248 23.86 56.0608 23.662C56.3968 23.458 56.7868 23.356 57.2308 23.356C57.6748 23.356 58.0558 23.455 58.3738 23.653C58.6918 23.851 58.9378 24.115 59.1118 24.445C59.2858 24.769 59.3728 25.129 59.3728 25.525C59.3728 25.585 59.3698 25.651 59.3638 25.723C59.3638 25.789 59.3608 25.864 59.3548 25.948H55.6468V25.309H58.4728C58.4548 24.931 58.3288 24.637 58.0948 24.427C57.8608 24.211 57.5698 24.103 57.2218 24.103C56.9758 24.103 56.7508 24.16 56.5468 24.274C56.3428 24.382 56.1778 24.544 56.0518 24.76C55.9318 24.97 55.8718 25.237 55.8718 25.561V25.813C55.8718 26.149 55.9318 26.434 56.0518 26.668C56.1778 26.896 56.3428 27.07 56.5468 27.19C56.7508 27.304 56.9728 27.361 57.2128 27.361C57.5008 27.361 57.7378 27.298 57.9238 27.172C58.1098 27.046 58.2478 26.875 58.3378 26.659H59.2378C59.1598 26.935 59.0278 27.184 58.8418 27.406C58.6558 27.622 58.4248 27.793 58.1488 27.919C57.8788 28.045 57.5668 28.108 57.2128 28.108ZM64.7455 28.108C64.3195 28.108 63.9355 28.009 63.5935 27.811C63.2575 27.613 62.9905 27.337 62.7925 26.983C62.6005 26.623 62.5045 26.209 62.5045 25.741C62.5045 25.261 62.6035 24.844 62.8015 24.49C62.9995 24.13 63.2695 23.851 63.6115 23.653C63.9535 23.455 64.3375 23.356 64.7635 23.356C65.1955 23.356 65.5795 23.455 65.9155 23.653C66.2515 23.851 66.5155 24.127 66.7075 24.481C66.9055 24.835 67.0045 25.252 67.0045 25.732C67.0045 26.212 66.9055 26.629 66.7075 26.983C66.5155 27.337 66.2485 27.613 65.9065 27.811C65.5645 28.009 65.1775 28.108 64.7455 28.108ZM64.7455 27.334C64.9915 27.334 65.2135 27.274 65.4115 27.154C65.6155 27.034 65.7775 26.857 65.8975 26.623C66.0235 26.383 66.0865 26.086 66.0865 25.732C66.0865 25.378 66.0265 25.084 65.9065 24.85C65.7865 24.61 65.6245 24.43 65.4205 24.31C65.2225 24.19 65.0035 24.13 64.7635 24.13C64.5235 24.13 64.3015 24.19 64.0975 24.31C63.8935 24.43 63.7285 24.61 63.6025 24.85C63.4825 25.084 63.4225 25.378 63.4225 25.732C63.4225 26.086 63.4825 26.383 63.6025 26.623C63.7285 26.857 63.8905 27.034 64.0885 27.154C64.2925 27.274 64.5115 27.334 64.7455 27.334ZM69.7282 28.108C69.3742 28.108 69.0652 28.036 68.8012 27.892C68.5432 27.748 68.3422 27.532 68.1982 27.244C68.0602 26.956 67.9912 26.593 67.9912 26.155V23.464H68.8912V26.056C68.8912 26.482 68.9842 26.803 69.1702 27.019C69.3562 27.235 69.6232 27.343 69.9712 27.343C70.2052 27.343 70.4152 27.286 70.6012 27.172C70.7932 27.058 70.9432 26.893 71.0512 26.677C71.1592 26.461 71.2132 26.197 71.2132 25.885V23.464H72.1132V28H71.3122L71.2492 27.226C71.1112 27.502 70.9102 27.718 70.6462 27.874C70.3822 28.03 70.0762 28.108 69.7282 28.108ZM73.3454 28V23.464H74.1554L74.2364 24.319C74.3384 24.115 74.4704 23.944 74.6324 23.806C74.7944 23.662 74.9834 23.551 75.1994 23.473C75.4214 23.395 75.6734 23.356 75.9554 23.356V24.31H75.6314C75.4454 24.31 75.2684 24.334 75.1004 24.382C74.9324 24.424 74.7824 24.499 74.6504 24.607C74.5244 24.715 74.4254 24.862 74.3534 25.048C74.2814 25.234 74.2454 25.465 74.2454 25.741V28H73.3454ZM79.0847 29.98V23.464H79.8947L79.9847 24.166C80.0807 24.028 80.2007 23.899 80.3447 23.779C80.4887 23.653 80.6597 23.551 80.8577 23.473C81.0617 23.395 81.2987 23.356 81.5687 23.356C82.0007 23.356 82.3787 23.461 82.7027 23.671C83.0327 23.881 83.2877 24.166 83.4677 24.526C83.6537 24.88 83.7467 25.285 83.7467 25.741C83.7467 26.197 83.6537 26.605 83.4677 26.965C83.2817 27.319 83.0237 27.598 82.6937 27.802C82.3697 28.006 81.9917 28.108 81.5597 28.108C81.2057 28.108 80.8937 28.039 80.6237 27.901C80.3537 27.757 80.1407 27.559 79.9847 27.307V29.98H79.0847ZM81.4157 27.325C81.6917 27.325 81.9347 27.259 82.1447 27.127C82.3607 26.995 82.5287 26.809 82.6487 26.569C82.7747 26.329 82.8377 26.05 82.8377 25.732C82.8377 25.414 82.7747 25.138 82.6487 24.904C82.5287 24.664 82.3607 24.478 82.1447 24.346C81.9347 24.208 81.6917 24.139 81.4157 24.139C81.1337 24.139 80.8847 24.208 80.6687 24.346C80.4587 24.478 80.2937 24.664 80.1737 24.904C80.0537 25.138 79.9937 25.414 79.9937 25.732C79.9937 26.05 80.0537 26.329 80.1737 26.569C80.2937 26.809 80.4587 26.995 80.6687 27.127C80.8847 27.259 81.1337 27.325 81.4157 27.325ZM84.7975 28V21.52H85.6975V28H84.7975ZM88.4363 28.108C88.0643 28.108 87.7553 28.045 87.5093 27.919C87.2633 27.793 87.0803 27.625 86.9603 27.415C86.8403 27.199 86.7803 26.968 86.7803 26.722C86.7803 26.422 86.8583 26.167 87.0143 25.957C87.1703 25.741 87.3923 25.576 87.6803 25.462C87.9683 25.348 88.3133 25.291 88.7153 25.291H89.8943C89.8943 25.027 89.8553 24.808 89.7773 24.634C89.6993 24.46 89.5823 24.331 89.4263 24.247C89.2763 24.157 89.0843 24.112 88.8503 24.112C88.5803 24.112 88.3493 24.178 88.1573 24.31C87.9653 24.436 87.8453 24.625 87.7973 24.877H86.8973C86.9333 24.559 87.0413 24.289 87.2213 24.067C87.4073 23.839 87.6443 23.665 87.9323 23.545C88.2203 23.419 88.5263 23.356 88.8503 23.356C89.2763 23.356 89.6333 23.431 89.9213 23.581C90.2093 23.731 90.4253 23.944 90.5693 24.22C90.7193 24.49 90.7943 24.814 90.7943 25.192V28H90.0113L89.9393 27.235C89.8733 27.355 89.7953 27.469 89.7053 27.577C89.6153 27.685 89.5073 27.778 89.3813 27.856C89.2613 27.934 89.1203 27.994 88.9583 28.036C88.8023 28.084 88.6283 28.108 88.4363 28.108ZM88.6073 27.379C88.7993 27.379 88.9733 27.34 89.1293 27.262C89.2853 27.184 89.4173 27.079 89.5253 26.947C89.6393 26.809 89.7233 26.656 89.7773 26.488C89.8373 26.314 89.8703 26.137 89.8763 25.957V25.93H88.8053C88.5473 25.93 88.3373 25.963 88.1753 26.029C88.0193 26.089 87.9053 26.173 87.8333 26.281C87.7613 26.389 87.7253 26.515 87.7253 26.659C87.7253 26.809 87.7583 26.938 87.8243 27.046C87.8963 27.148 87.9983 27.229 88.1303 27.289C88.2623 27.349 88.4213 27.379 88.6073 27.379ZM93.7184 28C93.4304 28 93.1814 27.955 92.9714 27.865C92.7614 27.775 92.5994 27.625 92.4854 27.415C92.3714 27.205 92.3144 26.92 92.3144 26.56V24.229H91.5314V23.464H92.3144L92.4224 22.33H93.2144V23.464H94.5014V24.229H93.2144V26.569C93.2144 26.827 93.2684 27.004 93.3764 27.1C93.4844 27.19 93.6704 27.235 93.9344 27.235H94.4564V28H93.7184ZM95.7368 28V22.852C95.7368 22.54 95.7878 22.285 95.8898 22.087C95.9978 21.889 96.1538 21.745 96.3578 21.655C96.5618 21.565 96.8078 21.52 97.0958 21.52H97.6268V22.285H97.2398C97.0238 22.285 96.8678 22.33 96.7718 22.42C96.6818 22.504 96.6368 22.654 96.6368 22.87V28H95.7368ZM95.0708 24.229V23.464H97.7258V24.229H95.0708ZM100.535 28.108C100.109 28.108 99.7245 28.009 99.3825 27.811C99.0465 27.613 98.7795 27.337 98.5815 26.983C98.3895 26.623 98.2935 26.209 98.2935 25.741C98.2935 25.261 98.3925 24.844 98.5905 24.49C98.7885 24.13 99.0585 23.851 99.4005 23.653C99.7425 23.455 100.127 23.356 100.553 23.356C100.985 23.356 101.369 23.455 101.705 23.653C102.041 23.851 102.305 24.127 102.497 24.481C102.695 24.835 102.794 25.252 102.794 25.732C102.794 26.212 102.695 26.629 102.497 26.983C102.305 27.337 102.038 27.613 101.696 27.811C101.354 28.009 100.967 28.108 100.535 28.108ZM100.535 27.334C100.781 27.334 101.003 27.274 101.201 27.154C101.405 27.034 101.567 26.857 101.687 26.623C101.813 26.383 101.876 26.086 101.876 25.732C101.876 25.378 101.816 25.084 101.696 24.85C101.576 24.61 101.414 24.43 101.21 24.31C101.012 24.19 100.793 24.13 100.553 24.13C100.313 24.13 100.091 24.19 99.8865 24.31C99.6825 24.43 99.5175 24.61 99.3915 24.85C99.2715 25.084 99.2115 25.378 99.2115 25.732C99.2115 26.086 99.2715 26.383 99.3915 26.623C99.5175 26.857 99.6795 27.034 99.8775 27.154C100.082 27.274 100.301 27.334 100.535 27.334ZM103.852 28V23.464H104.662L104.743 24.319C104.845 24.115 104.977 23.944 105.139 23.806C105.301 23.662 105.49 23.551 105.706 23.473C105.928 23.395 106.18 23.356 106.462 23.356V24.31H106.138C105.952 24.31 105.775 24.334 105.607 24.382C105.439 24.424 105.289 24.499 105.157 24.607C105.031 24.715 104.932 24.862 104.86 25.048C104.788 25.234 104.752 25.465 104.752 25.741V28H103.852ZM107.289 28V23.464H108.099L108.162 24.103C108.306 23.869 108.498 23.686 108.738 23.554C108.978 23.422 109.248 23.356 109.548 23.356C109.776 23.356 109.983 23.389 110.169 23.455C110.355 23.515 110.52 23.608 110.664 23.734C110.808 23.86 110.925 24.016 111.015 24.202C111.177 23.938 111.393 23.731 111.663 23.581C111.939 23.431 112.23 23.356 112.536 23.356C112.902 23.356 113.217 23.431 113.481 23.581C113.745 23.725 113.946 23.944 114.084 24.238C114.222 24.526 114.291 24.886 114.291 25.318V28H113.4V25.408C113.4 24.988 113.313 24.67 113.139 24.454C112.971 24.238 112.722 24.13 112.392 24.13C112.17 24.13 111.972 24.187 111.798 24.301C111.624 24.415 111.486 24.58 111.384 24.796C111.288 25.012 111.24 25.276 111.24 25.588V28H110.34V25.408C110.34 24.988 110.253 24.67 110.079 24.454C109.911 24.238 109.662 24.13 109.332 24.13C109.122 24.13 108.93 24.187 108.756 24.301C108.582 24.415 108.444 24.58 108.342 24.796C108.24 25.012 108.189 25.276 108.189 25.588V28H107.289Z" fill="white"/>
<defs>
<linearGradient id="paint0_linear_340_165" x1="78.5349" y1="48" x2="78.9717" y2="0.00461112" gradientUnits="userSpaceOnUse">
<stop offset="0.745192" stop-color="#0080C7"/>
<stop offset="1" stop-color="#8BD8F7"/>
</linearGradient>
</defs>
</svg>
