<svg width="157" height="49" viewBox="0 0 157 49" fill="none" xmlns="http://www.w3.org/2000/svg">
<path d="M153 0C155.209 2.41801e-06 157 1.79086 157 4V33.9561C157 36.1652 155.209 37.9561 153 37.9561H76.4551L73.3799 48.5L70.9082 37.9561H4C1.79086 37.9561 0 36.1652 0 33.9561V4C0 1.79086 1.79086 0 4 0H153Z" fill="url(#paint0_linear_330_768)"/>
<path d="M9.657 16V9.7H11.988C12.426 9.7 12.792 9.772 13.086 9.916C13.38 10.054 13.599 10.246 13.743 10.492C13.893 10.732 13.968 11.005 13.968 11.311C13.968 11.629 13.899 11.896 13.761 12.112C13.623 12.328 13.44 12.496 13.212 12.616C12.99 12.73 12.75 12.796 12.492 12.814L12.618 12.724C12.894 12.73 13.146 12.805 13.374 12.949C13.602 13.087 13.782 13.273 13.914 13.507C14.046 13.741 14.112 13.999 14.112 14.281C14.112 14.605 14.034 14.899 13.878 15.163C13.722 15.421 13.491 15.625 13.185 15.775C12.879 15.925 12.504 16 12.06 16H9.657ZM10.557 15.253H11.943C12.339 15.253 12.645 15.163 12.861 14.983C13.083 14.797 13.194 14.536 13.194 14.2C13.194 13.87 13.08 13.606 12.852 13.408C12.63 13.21 12.321 13.111 11.925 13.111H10.557V15.253ZM10.557 12.418H11.889C12.267 12.418 12.555 12.331 12.753 12.157C12.951 11.977 13.05 11.731 13.05 11.419C13.05 11.119 12.951 10.882 12.753 10.708C12.555 10.528 12.258 10.438 11.862 10.438H10.557V12.418ZM16.6433 16.108C16.2713 16.108 15.9623 16.045 15.7163 15.919C15.4703 15.793 15.2873 15.625 15.1673 15.415C15.0473 15.199 14.9873 14.968 14.9873 14.722C14.9873 14.422 15.0653 14.167 15.2213 13.957C15.3773 13.741 15.5993 13.576 15.8873 13.462C16.1753 13.348 16.5203 13.291 16.9223 13.291H18.1013C18.1013 13.027 18.0623 12.808 17.9843 12.634C17.9063 12.46 17.7893 12.331 17.6333 12.247C17.4833 12.157 17.2913 12.112 17.0573 12.112C16.7873 12.112 16.5563 12.178 16.3643 12.31C16.1723 12.436 16.0523 12.625 16.0043 12.877H15.1043C15.1403 12.559 15.2483 12.289 15.4283 12.067C15.6143 11.839 15.8513 11.665 16.1393 11.545C16.4273 11.419 16.7333 11.356 17.0573 11.356C17.4833 11.356 17.8403 11.431 18.1283 11.581C18.4163 11.731 18.6323 11.944 18.7763 12.22C18.9263 12.49 19.0013 12.814 19.0013 13.192V16H18.2183L18.1463 15.235C18.0803 15.355 18.0023 15.469 17.9123 15.577C17.8223 15.685 17.7143 15.778 17.5883 15.856C17.4683 15.934 17.3273 15.994 17.1653 16.036C17.0093 16.084 16.8353 16.108 16.6433 16.108ZM16.8143 15.379C17.0063 15.379 17.1803 15.34 17.3363 15.262C17.4923 15.184 17.6243 15.079 17.7323 14.947C17.8463 14.809 17.9303 14.656 17.9843 14.488C18.0443 14.314 18.0773 14.137 18.0833 13.957V13.93H17.0123C16.7543 13.93 16.5443 13.963 16.3823 14.029C16.2263 14.089 16.1123 14.173 16.0403 14.281C15.9683 14.389 15.9323 14.515 15.9323 14.659C15.9323 14.809 15.9653 14.938 16.0313 15.046C16.1033 15.148 16.2053 15.229 16.3373 15.289C16.4693 15.349 16.6283 15.379 16.8143 15.379ZM21.9051 16.108C21.5211 16.108 21.1851 16.045 20.8971 15.919C20.6091 15.793 20.3811 15.616 20.2131 15.388C20.0451 15.16 19.9431 14.893 19.9071 14.587H20.8251C20.8551 14.731 20.9121 14.863 20.9961 14.983C21.0861 15.103 21.2061 15.199 21.3561 15.271C21.5121 15.343 21.6951 15.379 21.9051 15.379C22.1031 15.379 22.2651 15.352 22.3911 15.298C22.5231 15.238 22.6191 15.16 22.6791 15.064C22.7391 14.962 22.7691 14.854 22.7691 14.74C22.7691 14.572 22.7271 14.446 22.6431 14.362C22.5651 14.272 22.4451 14.203 22.2831 14.155C22.1271 14.101 21.9381 14.053 21.7161 14.011C21.5061 13.975 21.3021 13.927 21.1041 13.867C20.9121 13.801 20.7381 13.72 20.5821 13.624C20.4321 13.528 20.3121 13.408 20.2221 13.264C20.1321 13.114 20.0871 12.931 20.0871 12.715C20.0871 12.457 20.1561 12.226 20.2941 12.022C20.4321 11.812 20.6271 11.65 20.8791 11.536C21.1371 11.416 21.4401 11.356 21.7881 11.356C22.2921 11.356 22.6971 11.476 23.0031 11.716C23.3091 11.956 23.4891 12.295 23.5431 12.733H22.6701C22.6461 12.529 22.5561 12.373 22.4001 12.265C22.2441 12.151 22.0371 12.094 21.7791 12.094C21.5211 12.094 21.3231 12.145 21.1851 12.247C21.0471 12.349 20.9781 12.484 20.9781 12.652C20.9781 12.76 21.0171 12.856 21.0951 12.94C21.1731 13.024 21.2871 13.096 21.4371 13.156C21.5931 13.21 21.7821 13.261 22.0041 13.309C22.3221 13.369 22.6071 13.444 22.8591 13.534C23.1111 13.624 23.3121 13.756 23.4621 13.93C23.6121 14.104 23.6871 14.353 23.6871 14.677C23.6931 14.959 23.6211 15.208 23.4711 15.424C23.3271 15.64 23.1201 15.808 22.8501 15.928C22.5861 16.048 22.2711 16.108 21.9051 16.108ZM24.8098 16V11.464H25.7098V16H24.8098ZM25.2688 10.609C25.0948 10.609 24.9508 10.555 24.8368 10.447C24.7288 10.339 24.6748 10.201 24.6748 10.033C24.6748 9.871 24.7288 9.739 24.8368 9.637C24.9508 9.529 25.0948 9.475 25.2688 9.475C25.4368 9.475 25.5778 9.529 25.6918 9.637C25.8058 9.739 25.8628 9.871 25.8628 10.033C25.8628 10.201 25.8058 10.339 25.6918 10.447C25.5778 10.555 25.4368 10.609 25.2688 10.609ZM29.0938 16.108C28.6558 16.108 28.2658 16.009 27.9238 15.811C27.5818 15.607 27.3118 15.328 27.1138 14.974C26.9218 14.62 26.8258 14.209 26.8258 13.741C26.8258 13.267 26.9218 12.853 27.1138 12.499C27.3118 12.139 27.5818 11.86 27.9238 11.662C28.2658 11.458 28.6558 11.356 29.0938 11.356C29.6458 11.356 30.1078 11.5 30.4798 11.788C30.8518 12.076 31.0888 12.466 31.1908 12.958H30.2548C30.1948 12.694 30.0568 12.49 29.8408 12.346C29.6308 12.202 29.3788 12.13 29.0848 12.13C28.8448 12.13 28.6228 12.193 28.4188 12.319C28.2148 12.439 28.0498 12.619 27.9238 12.859C27.8038 13.093 27.7438 13.384 27.7438 13.732C27.7438 13.99 27.7798 14.221 27.8518 14.425C27.9238 14.623 28.0198 14.791 28.1398 14.929C28.2658 15.067 28.4098 15.172 28.5718 15.244C28.7338 15.31 28.9048 15.343 29.0848 15.343C29.2828 15.343 29.4598 15.313 29.6158 15.253C29.7778 15.187 29.9128 15.091 30.0208 14.965C30.1348 14.839 30.2128 14.689 30.2548 14.515H31.1908C31.0888 14.995 30.8518 15.382 30.4798 15.676C30.1078 15.964 29.6458 16.108 29.0938 16.108ZM34.7896 16V10.852C34.7896 10.54 34.8406 10.285 34.9426 10.087C35.0506 9.889 35.2066 9.745 35.4106 9.655C35.6146 9.565 35.8606 9.52 36.1486 9.52H36.6796V10.285H36.2926C36.0766 10.285 35.9206 10.33 35.8246 10.42C35.7346 10.504 35.6896 10.654 35.6896 10.87V16H34.7896ZM34.1236 12.229V11.464H36.7786V12.229H34.1236ZM39.5693 16.108C39.1373 16.108 38.7533 16.009 38.4173 15.811C38.0813 15.613 37.8173 15.337 37.6253 14.983C37.4393 14.629 37.3463 14.218 37.3463 13.75C37.3463 13.27 37.4393 12.853 37.6253 12.499C37.8173 12.139 38.0813 11.86 38.4173 11.662C38.7533 11.458 39.1433 11.356 39.5873 11.356C40.0313 11.356 40.4123 11.455 40.7303 11.653C41.0483 11.851 41.2943 12.115 41.4683 12.445C41.6423 12.769 41.7293 13.129 41.7293 13.525C41.7293 13.585 41.7263 13.651 41.7203 13.723C41.7203 13.789 41.7173 13.864 41.7113 13.948H38.0033V13.309H40.8293C40.8113 12.931 40.6853 12.637 40.4513 12.427C40.2173 12.211 39.9263 12.103 39.5783 12.103C39.3323 12.103 39.1073 12.16 38.9033 12.274C38.6993 12.382 38.5343 12.544 38.4083 12.76C38.2883 12.97 38.2283 13.237 38.2283 13.561V13.813C38.2283 14.149 38.2883 14.434 38.4083 14.668C38.5343 14.896 38.6993 15.07 38.9033 15.19C39.1073 15.304 39.3293 15.361 39.5693 15.361C39.8573 15.361 40.0943 15.298 40.2803 15.172C40.4663 15.046 40.6043 14.875 40.6943 14.659H41.5943C41.5163 14.935 41.3843 15.184 41.1983 15.406C41.0123 15.622 40.7813 15.793 40.5053 15.919C40.2353 16.045 39.9233 16.108 39.5693 16.108ZM44.7812 16.108C44.3492 16.108 43.9652 16.009 43.6292 15.811C43.2932 15.613 43.0292 15.337 42.8372 14.983C42.6512 14.629 42.5582 14.218 42.5582 13.75C42.5582 13.27 42.6512 12.853 42.8372 12.499C43.0292 12.139 43.2932 11.86 43.6292 11.662C43.9652 11.458 44.3552 11.356 44.7992 11.356C45.2432 11.356 45.6242 11.455 45.9422 11.653C46.2602 11.851 46.5062 12.115 46.6802 12.445C46.8542 12.769 46.9412 13.129 46.9412 13.525C46.9412 13.585 46.9382 13.651 46.9322 13.723C46.9322 13.789 46.9292 13.864 46.9232 13.948H43.2152V13.309H46.0412C46.0232 12.931 45.8972 12.637 45.6632 12.427C45.4292 12.211 45.1382 12.103 44.7902 12.103C44.5442 12.103 44.3192 12.16 44.1152 12.274C43.9112 12.382 43.7462 12.544 43.6202 12.76C43.5002 12.97 43.4402 13.237 43.4402 13.561V13.813C43.4402 14.149 43.5002 14.434 43.6202 14.668C43.7462 14.896 43.9112 15.07 44.1152 15.19C44.3192 15.304 44.5412 15.361 44.7812 15.361C45.0692 15.361 45.3062 15.298 45.4922 15.172C45.6782 15.046 45.8162 14.875 45.9062 14.659H46.8062C46.7282 14.935 46.5962 15.184 46.4102 15.406C46.2242 15.622 45.9932 15.793 45.7172 15.919C45.4472 16.045 45.1352 16.108 44.7812 16.108ZM50.4868 16V10.852C50.4868 10.54 50.5378 10.285 50.6398 10.087C50.7478 9.889 50.9038 9.745 51.1078 9.655C51.3118 9.565 51.5578 9.52 51.8458 9.52H52.3768V10.285H51.9898C51.7738 10.285 51.6178 10.33 51.5218 10.42C51.4318 10.504 51.3868 10.654 51.3868 10.87V16H50.4868ZM49.8208 12.229V11.464H52.4758V12.229H49.8208ZM55.2845 16.108C54.8585 16.108 54.4745 16.009 54.1325 15.811C53.7965 15.613 53.5295 15.337 53.3315 14.983C53.1395 14.623 53.0435 14.209 53.0435 13.741C53.0435 13.261 53.1425 12.844 53.3405 12.49C53.5385 12.13 53.8085 11.851 54.1505 11.653C54.4925 11.455 54.8765 11.356 55.3025 11.356C55.7345 11.356 56.1185 11.455 56.4545 11.653C56.7905 11.851 57.0545 12.127 57.2465 12.481C57.4445 12.835 57.5435 13.252 57.5435 13.732C57.5435 14.212 57.4445 14.629 57.2465 14.983C57.0545 15.337 56.7875 15.613 56.4455 15.811C56.1035 16.009 55.7165 16.108 55.2845 16.108ZM55.2845 15.334C55.5305 15.334 55.7525 15.274 55.9505 15.154C56.1545 15.034 56.3165 14.857 56.4365 14.623C56.5625 14.383 56.6255 14.086 56.6255 13.732C56.6255 13.378 56.5655 13.084 56.4455 12.85C56.3255 12.61 56.1635 12.43 55.9595 12.31C55.7615 12.19 55.5425 12.13 55.3025 12.13C55.0625 12.13 54.8405 12.19 54.6365 12.31C54.4325 12.43 54.2675 12.61 54.1415 12.85C54.0215 13.084 53.9615 13.378 53.9615 13.732C53.9615 14.086 54.0215 14.383 54.1415 14.623C54.2675 14.857 54.4295 15.034 54.6275 15.154C54.8315 15.274 55.0505 15.334 55.2845 15.334ZM58.6022 16V11.464H59.4122L59.4932 12.319C59.5952 12.115 59.7272 11.944 59.8892 11.806C60.0512 11.662 60.2402 11.551 60.4562 11.473C60.6782 11.395 60.9302 11.356 61.2122 11.356V12.31H60.8882C60.7022 12.31 60.5252 12.334 60.3572 12.382C60.1892 12.424 60.0392 12.499 59.9072 12.607C59.7812 12.715 59.6822 12.862 59.6102 13.048C59.5382 13.234 59.5022 13.465 59.5022 13.741V16H58.6022ZM66.1865 18.088C65.7725 18.088 65.4065 18.034 65.0885 17.926C64.7705 17.824 64.5245 17.665 64.3505 17.449C64.1765 17.233 64.0895 16.969 64.0895 16.657C64.0895 16.495 64.1255 16.33 64.1975 16.162C64.2695 16 64.3865 15.844 64.5485 15.694C64.7105 15.544 64.9295 15.409 65.2055 15.289L65.7095 15.694C65.4035 15.808 65.1965 15.943 65.0885 16.099C64.9865 16.261 64.9355 16.417 64.9355 16.567C64.9355 16.747 64.9895 16.897 65.0975 17.017C65.2055 17.137 65.3525 17.227 65.5385 17.287C65.7305 17.347 65.9465 17.377 66.1865 17.377C66.4205 17.377 66.6245 17.344 66.7985 17.278C66.9725 17.212 67.1075 17.119 67.2035 16.999C67.2995 16.879 67.3475 16.738 67.3475 16.576C67.3475 16.384 67.2755 16.222 67.1315 16.09C66.9875 15.964 66.7115 15.889 66.3035 15.865C65.9615 15.841 65.6705 15.808 65.4305 15.766C65.1965 15.724 64.9955 15.673 64.8275 15.613C64.6655 15.553 64.5275 15.487 64.4135 15.415C64.3055 15.343 64.2125 15.268 64.1345 15.19V14.983L65.0345 14.056L65.7635 14.308L64.7825 15.217L64.9715 14.812C65.0375 14.854 65.1005 14.896 65.1605 14.938C65.2205 14.974 65.3015 15.007 65.4035 15.037C65.5055 15.067 65.6435 15.094 65.8175 15.118C65.9915 15.142 66.2195 15.166 66.5015 15.19C66.9095 15.22 67.2365 15.292 67.4825 15.406C67.7345 15.52 67.9175 15.673 68.0315 15.865C68.1455 16.057 68.2025 16.285 68.2025 16.549C68.2025 16.807 68.1305 17.053 67.9865 17.287C67.8485 17.521 67.6295 17.713 67.3295 17.863C67.0355 18.013 66.6545 18.088 66.1865 18.088ZM66.1865 14.605C65.8025 14.605 65.4755 14.533 65.2055 14.389C64.9415 14.245 64.7375 14.05 64.5935 13.804C64.4555 13.558 64.3865 13.285 64.3865 12.985C64.3865 12.679 64.4555 12.406 64.5935 12.166C64.7375 11.92 64.9445 11.725 65.2145 11.581C65.4845 11.431 65.8085 11.356 66.1865 11.356C66.5645 11.356 66.8855 11.431 67.1495 11.581C67.4195 11.725 67.6235 11.92 67.7615 12.166C67.9055 12.406 67.9775 12.679 67.9775 12.985C67.9775 13.285 67.9055 13.558 67.7615 13.804C67.6235 14.05 67.4195 14.245 67.1495 14.389C66.8855 14.533 66.5645 14.605 66.1865 14.605ZM66.1865 13.885C66.4805 13.885 66.7145 13.81 66.8885 13.66C67.0625 13.504 67.1495 13.279 67.1495 12.985C67.1495 12.691 67.0625 12.469 66.8885 12.319C66.7145 12.163 66.4805 12.085 66.1865 12.085C65.8925 12.085 65.6555 12.163 65.4755 12.319C65.2955 12.469 65.2055 12.691 65.2055 12.985C65.2055 13.279 65.2955 13.504 65.4755 13.66C65.6555 13.81 65.8925 13.885 66.1865 13.885ZM66.9245 12.175L66.7085 11.464H68.5715V12.085L66.9245 12.175ZM71.3685 16.108C70.9425 16.108 70.5585 16.009 70.2165 15.811C69.8805 15.613 69.6135 15.337 69.4155 14.983C69.2235 14.623 69.1275 14.209 69.1275 13.741C69.1275 13.261 69.2265 12.844 69.4245 12.49C69.6225 12.13 69.8925 11.851 70.2345 11.653C70.5765 11.455 70.9605 11.356 71.3865 11.356C71.8185 11.356 72.2025 11.455 72.5385 11.653C72.8745 11.851 73.1385 12.127 73.3305 12.481C73.5285 12.835 73.6275 13.252 73.6275 13.732C73.6275 14.212 73.5285 14.629 73.3305 14.983C73.1385 15.337 72.8715 15.613 72.5295 15.811C72.1875 16.009 71.8005 16.108 71.3685 16.108ZM71.3685 15.334C71.6145 15.334 71.8365 15.274 72.0345 15.154C72.2385 15.034 72.4005 14.857 72.5205 14.623C72.6465 14.383 72.7095 14.086 72.7095 13.732C72.7095 13.378 72.6495 13.084 72.5295 12.85C72.4095 12.61 72.2475 12.43 72.0435 12.31C71.8455 12.19 71.6265 12.13 71.3865 12.13C71.1465 12.13 70.9245 12.19 70.7205 12.31C70.5165 12.43 70.3515 12.61 70.2255 12.85C70.1055 13.084 70.0455 13.378 70.0455 13.732C70.0455 14.086 70.1055 14.383 70.2255 14.623C70.3515 14.857 70.5135 15.034 70.7115 15.154C70.9155 15.274 71.1345 15.334 71.3685 15.334ZM76.7562 16.108C76.3302 16.108 75.9462 16.009 75.6042 15.811C75.2682 15.613 75.0012 15.337 74.8032 14.983C74.6112 14.623 74.5152 14.209 74.5152 13.741C74.5152 13.261 74.6142 12.844 74.8122 12.49C75.0102 12.13 75.2802 11.851 75.6222 11.653C75.9642 11.455 76.3482 11.356 76.7742 11.356C77.2062 11.356 77.5902 11.455 77.9262 11.653C78.2622 11.851 78.5262 12.127 78.7182 12.481C78.9162 12.835 79.0152 13.252 79.0152 13.732C79.0152 14.212 78.9162 14.629 78.7182 14.983C78.5262 15.337 78.2592 15.613 77.9172 15.811C77.5752 16.009 77.1882 16.108 76.7562 16.108ZM76.7562 15.334C77.0022 15.334 77.2242 15.274 77.4222 15.154C77.6262 15.034 77.7882 14.857 77.9082 14.623C78.0342 14.383 78.0972 14.086 78.0972 13.732C78.0972 13.378 78.0372 13.084 77.9172 12.85C77.7972 12.61 77.6352 12.43 77.4312 12.31C77.2332 12.19 77.0142 12.13 76.7742 12.13C76.5342 12.13 76.3122 12.19 76.1082 12.31C75.9042 12.43 75.7392 12.61 75.6132 12.85C75.4932 13.084 75.4332 13.378 75.4332 13.732C75.4332 14.086 75.4932 14.383 75.6132 14.623C75.7392 14.857 75.9012 15.034 76.0992 15.154C76.3032 15.274 76.5222 15.334 76.7562 15.334ZM82.0899 16.108C81.6579 16.108 81.2769 16.006 80.9469 15.802C80.6169 15.592 80.3589 15.31 80.1729 14.956C79.9929 14.596 79.9029 14.188 79.9029 13.732C79.9029 13.27 79.9929 12.862 80.1729 12.508C80.3589 12.154 80.6169 11.875 80.9469 11.671C81.2829 11.461 81.6669 11.356 82.0989 11.356C82.4529 11.356 82.7649 11.428 83.0349 11.572C83.3049 11.71 83.5149 11.908 83.6649 12.166V9.52H84.5649V16H83.7549L83.6649 15.298C83.5749 15.436 83.4579 15.568 83.3139 15.694C83.1699 15.814 82.9959 15.913 82.7919 15.991C82.5879 16.069 82.3539 16.108 82.0899 16.108ZM82.2339 15.325C82.5159 15.325 82.7649 15.259 82.9809 15.127C83.1969 14.995 83.3619 14.809 83.4759 14.569C83.5959 14.329 83.6559 14.05 83.6559 13.732C83.6559 13.414 83.5959 13.138 83.4759 12.904C83.3619 12.664 83.1969 12.478 82.9809 12.346C82.7649 12.208 82.5159 12.139 82.2339 12.139C81.9639 12.139 81.7209 12.208 81.5049 12.346C81.2889 12.478 81.1209 12.664 81.0009 12.904C80.8809 13.138 80.8209 13.414 80.8209 13.732C80.8209 14.05 80.8809 14.329 81.0009 14.569C81.1209 14.809 81.2889 14.995 81.5049 15.127C81.7209 15.259 81.9639 15.325 82.2339 15.325ZM88.0983 17.98V11.464H88.9083L88.9983 12.166C89.0943 12.028 89.2143 11.899 89.3583 11.779C89.5023 11.653 89.6733 11.551 89.8713 11.473C90.0753 11.395 90.3123 11.356 90.5823 11.356C91.0143 11.356 91.3923 11.461 91.7163 11.671C92.0463 11.881 92.3013 12.166 92.4813 12.526C92.6673 12.88 92.7603 13.285 92.7603 13.741C92.7603 14.197 92.6673 14.605 92.4813 14.965C92.2953 15.319 92.0373 15.598 91.7073 15.802C91.3833 16.006 91.0053 16.108 90.5733 16.108C90.2193 16.108 89.9073 16.039 89.6373 15.901C89.3673 15.757 89.1543 15.559 88.9983 15.307V17.98H88.0983ZM90.4293 15.325C90.7053 15.325 90.9483 15.259 91.1583 15.127C91.3743 14.995 91.5423 14.809 91.6623 14.569C91.7883 14.329 91.8513 14.05 91.8513 13.732C91.8513 13.414 91.7883 13.138 91.6623 12.904C91.5423 12.664 91.3743 12.478 91.1583 12.346C90.9483 12.208 90.7053 12.139 90.4293 12.139C90.1473 12.139 89.8983 12.208 89.6823 12.346C89.4723 12.478 89.3073 12.664 89.1873 12.904C89.0673 13.138 89.0073 13.414 89.0073 13.732C89.0073 14.05 89.0673 14.329 89.1873 14.569C89.3073 14.809 89.4723 14.995 89.6823 15.127C89.8983 15.259 90.1473 15.325 90.4293 15.325ZM95.3142 16.108C94.9422 16.108 94.6332 16.045 94.3872 15.919C94.1412 15.793 93.9582 15.625 93.8382 15.415C93.7182 15.199 93.6582 14.968 93.6582 14.722C93.6582 14.422 93.7362 14.167 93.8922 13.957C94.0482 13.741 94.2702 13.576 94.5582 13.462C94.8462 13.348 95.1912 13.291 95.5932 13.291H96.7722C96.7722 13.027 96.7332 12.808 96.6552 12.634C96.5772 12.46 96.4602 12.331 96.3042 12.247C96.1542 12.157 95.9622 12.112 95.7282 12.112C95.4582 12.112 95.2272 12.178 95.0352 12.31C94.8432 12.436 94.7232 12.625 94.6752 12.877H93.7752C93.8112 12.559 93.9192 12.289 94.0992 12.067C94.2852 11.839 94.5222 11.665 94.8102 11.545C95.0982 11.419 95.4042 11.356 95.7282 11.356C96.1542 11.356 96.5112 11.431 96.7992 11.581C97.0872 11.731 97.3032 11.944 97.4472 12.22C97.5972 12.49 97.6722 12.814 97.6722 13.192V16H96.8892L96.8172 15.235C96.7512 15.355 96.6732 15.469 96.5832 15.577C96.4932 15.685 96.3852 15.778 96.2592 15.856C96.1392 15.934 95.9982 15.994 95.8362 16.036C95.6802 16.084 95.5062 16.108 95.3142 16.108ZM95.4852 15.379C95.6772 15.379 95.8512 15.34 96.0072 15.262C96.1632 15.184 96.2952 15.079 96.4032 14.947C96.5172 14.809 96.6012 14.656 96.6552 14.488C96.7152 14.314 96.7482 14.137 96.7542 13.957V13.93H95.6832C95.4252 13.93 95.2152 13.963 95.0532 14.029C94.8972 14.089 94.7832 14.173 94.7112 14.281C94.6392 14.389 94.6032 14.515 94.6032 14.659C94.6032 14.809 94.6362 14.938 94.7022 15.046C94.7742 15.148 94.8762 15.229 95.0082 15.289C95.1402 15.349 95.2992 15.379 95.4852 15.379ZM100.918 16.108C100.48 16.108 100.09 16.009 99.748 15.811C99.406 15.607 99.136 15.328 98.938 14.974C98.746 14.62 98.65 14.209 98.65 13.741C98.65 13.267 98.746 12.853 98.938 12.499C99.136 12.139 99.406 11.86 99.748 11.662C100.09 11.458 100.48 11.356 100.918 11.356C101.47 11.356 101.932 11.5 102.304 11.788C102.676 12.076 102.913 12.466 103.015 12.958H102.079C102.019 12.694 101.881 12.49 101.665 12.346C101.455 12.202 101.203 12.13 100.909 12.13C100.669 12.13 100.447 12.193 100.243 12.319C100.039 12.439 99.874 12.619 99.748 12.859C99.628 13.093 99.568 13.384 99.568 13.732C99.568 13.99 99.604 14.221 99.676 14.425C99.748 14.623 99.844 14.791 99.964 14.929C100.09 15.067 100.234 15.172 100.396 15.244C100.558 15.31 100.729 15.343 100.909 15.343C101.107 15.343 101.284 15.313 101.44 15.253C101.602 15.187 101.737 15.091 101.845 14.965C101.959 14.839 102.037 14.689 102.079 14.515H103.015C102.913 14.995 102.676 15.382 102.304 15.676C101.932 15.964 101.47 16.108 100.918 16.108ZM106.921 16L104.833 13.516L106.723 11.464H107.812L105.562 13.867V13.192L108.055 16H106.921ZM104.068 16V9.52H104.968V16H104.068ZM110.238 16.108C109.866 16.108 109.557 16.045 109.311 15.919C109.065 15.793 108.882 15.625 108.762 15.415C108.642 15.199 108.582 14.968 108.582 14.722C108.582 14.422 108.66 14.167 108.816 13.957C108.972 13.741 109.194 13.576 109.482 13.462C109.77 13.348 110.115 13.291 110.517 13.291H111.696C111.696 13.027 111.657 12.808 111.579 12.634C111.501 12.46 111.384 12.331 111.228 12.247C111.078 12.157 110.886 12.112 110.652 12.112C110.382 12.112 110.151 12.178 109.959 12.31C109.767 12.436 109.647 12.625 109.599 12.877H108.699C108.735 12.559 108.843 12.289 109.023 12.067C109.209 11.839 109.446 11.665 109.734 11.545C110.022 11.419 110.328 11.356 110.652 11.356C111.078 11.356 111.435 11.431 111.723 11.581C112.011 11.731 112.227 11.944 112.371 12.22C112.521 12.49 112.596 12.814 112.596 13.192V16H111.813L111.741 15.235C111.675 15.355 111.597 15.469 111.507 15.577C111.417 15.685 111.309 15.778 111.183 15.856C111.063 15.934 110.922 15.994 110.76 16.036C110.604 16.084 110.43 16.108 110.238 16.108ZM110.409 15.379C110.601 15.379 110.775 15.34 110.931 15.262C111.087 15.184 111.219 15.079 111.327 14.947C111.441 14.809 111.525 14.656 111.579 14.488C111.639 14.314 111.672 14.137 111.678 13.957V13.93H110.607C110.349 13.93 110.139 13.963 109.977 14.029C109.821 14.089 109.707 14.173 109.635 14.281C109.563 14.389 109.527 14.515 109.527 14.659C109.527 14.809 109.56 14.938 109.626 15.046C109.698 15.148 109.8 15.229 109.932 15.289C110.064 15.349 110.223 15.379 110.409 15.379ZM115.59 18.088C115.176 18.088 114.81 18.034 114.492 17.926C114.174 17.824 113.928 17.665 113.754 17.449C113.58 17.233 113.493 16.969 113.493 16.657C113.493 16.495 113.529 16.33 113.601 16.162C113.673 16 113.79 15.844 113.952 15.694C114.114 15.544 114.333 15.409 114.609 15.289L115.113 15.694C114.807 15.808 114.6 15.943 114.492 16.099C114.39 16.261 114.339 16.417 114.339 16.567C114.339 16.747 114.393 16.897 114.501 17.017C114.609 17.137 114.756 17.227 114.942 17.287C115.134 17.347 115.35 17.377 115.59 17.377C115.824 17.377 116.028 17.344 116.202 17.278C116.376 17.212 116.511 17.119 116.607 16.999C116.703 16.879 116.751 16.738 116.751 16.576C116.751 16.384 116.679 16.222 116.535 16.09C116.391 15.964 116.115 15.889 115.707 15.865C115.365 15.841 115.074 15.808 114.834 15.766C114.6 15.724 114.399 15.673 114.231 15.613C114.069 15.553 113.931 15.487 113.817 15.415C113.709 15.343 113.616 15.268 113.538 15.19V14.983L114.438 14.056L115.167 14.308L114.186 15.217L114.375 14.812C114.441 14.854 114.504 14.896 114.564 14.938C114.624 14.974 114.705 15.007 114.807 15.037C114.909 15.067 115.047 15.094 115.221 15.118C115.395 15.142 115.623 15.166 115.905 15.19C116.313 15.22 116.64 15.292 116.886 15.406C117.138 15.52 117.321 15.673 117.435 15.865C117.549 16.057 117.606 16.285 117.606 16.549C117.606 16.807 117.534 17.053 117.39 17.287C117.252 17.521 117.033 17.713 116.733 17.863C116.439 18.013 116.058 18.088 115.59 18.088ZM115.59 14.605C115.206 14.605 114.879 14.533 114.609 14.389C114.345 14.245 114.141 14.05 113.997 13.804C113.859 13.558 113.79 13.285 113.79 12.985C113.79 12.679 113.859 12.406 113.997 12.166C114.141 11.92 114.348 11.725 114.618 11.581C114.888 11.431 115.212 11.356 115.59 11.356C115.968 11.356 116.289 11.431 116.553 11.581C116.823 11.725 117.027 11.92 117.165 12.166C117.309 12.406 117.381 12.679 117.381 12.985C117.381 13.285 117.309 13.558 117.165 13.804C117.027 14.05 116.823 14.245 116.553 14.389C116.289 14.533 115.968 14.605 115.59 14.605ZM115.59 13.885C115.884 13.885 116.118 13.81 116.292 13.66C116.466 13.504 116.553 13.279 116.553 12.985C116.553 12.691 116.466 12.469 116.292 12.319C116.118 12.163 115.884 12.085 115.59 12.085C115.296 12.085 115.059 12.163 114.879 12.319C114.699 12.469 114.609 12.691 114.609 12.985C114.609 13.279 114.699 13.504 114.879 13.66C115.059 13.81 115.296 13.885 115.59 13.885ZM116.328 12.175L116.112 11.464H117.975V12.085L116.328 12.175ZM118.941 16V11.464H119.841V16H118.941ZM119.4 10.609C119.226 10.609 119.082 10.555 118.968 10.447C118.86 10.339 118.806 10.201 118.806 10.033C118.806 9.871 118.86 9.739 118.968 9.637C119.082 9.529 119.226 9.475 119.4 9.475C119.568 9.475 119.709 9.529 119.823 9.637C119.937 9.739 119.994 9.871 119.994 10.033C119.994 10.201 119.937 10.339 119.823 10.447C119.709 10.555 119.568 10.609 119.4 10.609ZM121.128 16V11.464H121.938L121.992 12.238C122.136 11.968 122.34 11.755 122.604 11.599C122.868 11.437 123.171 11.356 123.513 11.356C123.873 11.356 124.182 11.428 124.44 11.572C124.698 11.716 124.899 11.935 125.043 12.229C125.187 12.517 125.259 12.88 125.259 13.318V16H124.359V13.408C124.359 12.988 124.266 12.67 124.08 12.454C123.894 12.238 123.624 12.13 123.27 12.13C123.036 12.13 122.826 12.187 122.64 12.301C122.454 12.409 122.304 12.571 122.19 12.787C122.082 13.003 122.028 13.267 122.028 13.579V16H121.128ZM128.255 18.088C127.841 18.088 127.475 18.034 127.157 17.926C126.839 17.824 126.593 17.665 126.419 17.449C126.245 17.233 126.158 16.969 126.158 16.657C126.158 16.495 126.194 16.33 126.266 16.162C126.338 16 126.455 15.844 126.617 15.694C126.779 15.544 126.998 15.409 127.274 15.289L127.778 15.694C127.472 15.808 127.265 15.943 127.157 16.099C127.055 16.261 127.004 16.417 127.004 16.567C127.004 16.747 127.058 16.897 127.166 17.017C127.274 17.137 127.421 17.227 127.607 17.287C127.799 17.347 128.015 17.377 128.255 17.377C128.489 17.377 128.693 17.344 128.867 17.278C129.041 17.212 129.176 17.119 129.272 16.999C129.368 16.879 129.416 16.738 129.416 16.576C129.416 16.384 129.344 16.222 129.2 16.09C129.056 15.964 128.78 15.889 128.372 15.865C128.03 15.841 127.739 15.808 127.499 15.766C127.265 15.724 127.064 15.673 126.896 15.613C126.734 15.553 126.596 15.487 126.482 15.415C126.374 15.343 126.281 15.268 126.203 15.19V14.983L127.103 14.056L127.832 14.308L126.851 15.217L127.04 14.812C127.106 14.854 127.169 14.896 127.229 14.938C127.289 14.974 127.37 15.007 127.472 15.037C127.574 15.067 127.712 15.094 127.886 15.118C128.06 15.142 128.288 15.166 128.57 15.19C128.978 15.22 129.305 15.292 129.551 15.406C129.803 15.52 129.986 15.673 130.1 15.865C130.214 16.057 130.271 16.285 130.271 16.549C130.271 16.807 130.199 17.053 130.055 17.287C129.917 17.521 129.698 17.713 129.398 17.863C129.104 18.013 128.723 18.088 128.255 18.088ZM128.255 14.605C127.871 14.605 127.544 14.533 127.274 14.389C127.01 14.245 126.806 14.05 126.662 13.804C126.524 13.558 126.455 13.285 126.455 12.985C126.455 12.679 126.524 12.406 126.662 12.166C126.806 11.92 127.013 11.725 127.283 11.581C127.553 11.431 127.877 11.356 128.255 11.356C128.633 11.356 128.954 11.431 129.218 11.581C129.488 11.725 129.692 11.92 129.83 12.166C129.974 12.406 130.046 12.679 130.046 12.985C130.046 13.285 129.974 13.558 129.83 13.804C129.692 14.05 129.488 14.245 129.218 14.389C128.954 14.533 128.633 14.605 128.255 14.605ZM128.255 13.885C128.549 13.885 128.783 13.81 128.957 13.66C129.131 13.504 129.218 13.279 129.218 12.985C129.218 12.691 129.131 12.469 128.957 12.319C128.783 12.163 128.549 12.085 128.255 12.085C127.961 12.085 127.724 12.163 127.544 12.319C127.364 12.469 127.274 12.691 127.274 12.985C127.274 13.279 127.364 13.504 127.544 13.66C127.724 13.81 127.961 13.885 128.255 13.885ZM128.993 12.175L128.777 11.464H130.64V12.085L128.993 12.175ZM135.348 16.108C134.976 16.108 134.667 16.045 134.421 15.919C134.175 15.793 133.992 15.625 133.872 15.415C133.752 15.199 133.692 14.968 133.692 14.722C133.692 14.422 133.77 14.167 133.926 13.957C134.082 13.741 134.304 13.576 134.592 13.462C134.88 13.348 135.225 13.291 135.627 13.291H136.806C136.806 13.027 136.767 12.808 136.689 12.634C136.611 12.46 136.494 12.331 136.338 12.247C136.188 12.157 135.996 12.112 135.762 12.112C135.492 12.112 135.261 12.178 135.069 12.31C134.877 12.436 134.757 12.625 134.709 12.877H133.809C133.845 12.559 133.953 12.289 134.133 12.067C134.319 11.839 134.556 11.665 134.844 11.545C135.132 11.419 135.438 11.356 135.762 11.356C136.188 11.356 136.545 11.431 136.833 11.581C137.121 11.731 137.337 11.944 137.481 12.22C137.631 12.49 137.706 12.814 137.706 13.192V16H136.923L136.851 15.235C136.785 15.355 136.707 15.469 136.617 15.577C136.527 15.685 136.419 15.778 136.293 15.856C136.173 15.934 136.032 15.994 135.87 16.036C135.714 16.084 135.54 16.108 135.348 16.108ZM135.519 15.379C135.711 15.379 135.885 15.34 136.041 15.262C136.197 15.184 136.329 15.079 136.437 14.947C136.551 14.809 136.635 14.656 136.689 14.488C136.749 14.314 136.782 14.137 136.788 13.957V13.93H135.717C135.459 13.93 135.249 13.963 135.087 14.029C134.931 14.089 134.817 14.173 134.745 14.281C134.673 14.389 134.637 14.515 134.637 14.659C134.637 14.809 134.67 14.938 134.736 15.046C134.808 15.148 134.91 15.229 135.042 15.289C135.174 15.349 135.333 15.379 135.519 15.379ZM138.855 16V11.464H139.665L139.719 12.238C139.863 11.968 140.067 11.755 140.331 11.599C140.595 11.437 140.898 11.356 141.24 11.356C141.6 11.356 141.909 11.428 142.167 11.572C142.425 11.716 142.626 11.935 142.77 12.229C142.914 12.517 142.986 12.88 142.986 13.318V16H142.086V13.408C142.086 12.988 141.993 12.67 141.807 12.454C141.621 12.238 141.351 12.13 140.997 12.13C140.763 12.13 140.553 12.187 140.367 12.301C140.181 12.409 140.031 12.571 139.917 12.787C139.809 13.003 139.755 13.267 139.755 13.579V16H138.855ZM146.153 16.108C145.721 16.108 145.34 16.006 145.01 15.802C144.68 15.592 144.422 15.31 144.236 14.956C144.056 14.596 143.966 14.188 143.966 13.732C143.966 13.27 144.056 12.862 144.236 12.508C144.422 12.154 144.68 11.875 145.01 11.671C145.346 11.461 145.73 11.356 146.162 11.356C146.516 11.356 146.828 11.428 147.098 11.572C147.368 11.71 147.578 11.908 147.728 12.166V9.52H148.628V16H147.818L147.728 15.298C147.638 15.436 147.521 15.568 147.377 15.694C147.233 15.814 147.059 15.913 146.855 15.991C146.651 16.069 146.417 16.108 146.153 16.108ZM146.297 15.325C146.579 15.325 146.828 15.259 147.044 15.127C147.26 14.995 147.425 14.809 147.539 14.569C147.659 14.329 147.719 14.05 147.719 13.732C147.719 13.414 147.659 13.138 147.539 12.904C147.425 12.664 147.26 12.478 147.044 12.346C146.828 12.208 146.579 12.139 146.297 12.139C146.027 12.139 145.784 12.208 145.568 12.346C145.352 12.478 145.184 12.664 145.064 12.904C144.944 13.138 144.884 13.414 144.884 13.732C144.884 14.05 144.944 14.329 145.064 14.569C145.184 14.809 145.352 14.995 145.568 15.127C145.784 15.259 146.027 15.325 146.297 15.325ZM9.612 28V21.52H10.512V24.202C10.662 23.938 10.869 23.731 11.133 23.581C11.403 23.431 11.7 23.356 12.024 23.356C12.384 23.356 12.693 23.431 12.951 23.581C13.209 23.725 13.407 23.944 13.545 24.238C13.683 24.526 13.752 24.889 13.752 25.327V28H12.861V25.417C12.861 24.997 12.771 24.679 12.591 24.463C12.411 24.241 12.144 24.13 11.79 24.13C11.55 24.13 11.334 24.187 11.142 24.301C10.95 24.415 10.797 24.583 10.683 24.805C10.569 25.021 10.512 25.285 10.512 25.597V28H9.612ZM16.406 28.108C16.034 28.108 15.725 28.045 15.479 27.919C15.233 27.793 15.05 27.625 14.93 27.415C14.81 27.199 14.75 26.968 14.75 26.722C14.75 26.422 14.828 26.167 14.984 25.957C15.14 25.741 15.362 25.576 15.65 25.462C15.938 25.348 16.283 25.291 16.685 25.291H17.864C17.864 25.027 17.825 24.808 17.747 24.634C17.669 24.46 17.552 24.331 17.396 24.247C17.246 24.157 17.054 24.112 16.82 24.112C16.55 24.112 16.319 24.178 16.127 24.31C15.935 24.436 15.815 24.625 15.767 24.877H14.867C14.903 24.559 15.011 24.289 15.191 24.067C15.377 23.839 15.614 23.665 15.902 23.545C16.19 23.419 16.496 23.356 16.82 23.356C17.246 23.356 17.603 23.431 17.891 23.581C18.179 23.731 18.395 23.944 18.539 24.22C18.689 24.49 18.764 24.814 18.764 25.192V28H17.981L17.909 27.235C17.843 27.355 17.765 27.469 17.675 27.577C17.585 27.685 17.477 27.778 17.351 27.856C17.231 27.934 17.09 27.994 16.928 28.036C16.772 28.084 16.598 28.108 16.406 28.108ZM16.577 27.379C16.769 27.379 16.943 27.34 17.099 27.262C17.255 27.184 17.387 27.079 17.495 26.947C17.609 26.809 17.693 26.656 17.747 26.488C17.807 26.314 17.84 26.137 17.846 25.957V25.93H16.775C16.517 25.93 16.307 25.963 16.145 26.029C15.989 26.089 15.875 26.173 15.803 26.281C15.731 26.389 15.695 26.515 15.695 26.659C15.695 26.809 15.728 26.938 15.794 27.046C15.866 27.148 15.968 27.229 16.1 27.289C16.232 27.349 16.391 27.379 16.577 27.379ZM19.9128 28V23.464H20.7228L20.7768 24.238C20.9208 23.968 21.1248 23.755 21.3888 23.599C21.6528 23.437 21.9558 23.356 22.2978 23.356C22.6578 23.356 22.9668 23.428 23.2248 23.572C23.4828 23.716 23.6838 23.935 23.8278 24.229C23.9718 24.517 24.0438 24.88 24.0438 25.318V28H23.1438V25.408C23.1438 24.988 23.0508 24.67 22.8648 24.454C22.6788 24.238 22.4088 24.13 22.0548 24.13C21.8208 24.13 21.6108 24.187 21.4248 24.301C21.2388 24.409 21.0888 24.571 20.9748 24.787C20.8668 25.003 20.8128 25.267 20.8128 25.579V28H19.9128ZM27.211 28.108C26.779 28.108 26.398 28.006 26.068 27.802C25.738 27.592 25.48 27.31 25.294 26.956C25.114 26.596 25.024 26.188 25.024 25.732C25.024 25.27 25.114 24.862 25.294 24.508C25.48 24.154 25.738 23.875 26.068 23.671C26.404 23.461 26.788 23.356 27.22 23.356C27.574 23.356 27.886 23.428 28.156 23.572C28.426 23.71 28.636 23.908 28.786 24.166V21.52H29.686V28H28.876L28.786 27.298C28.696 27.436 28.579 27.568 28.435 27.694C28.291 27.814 28.117 27.913 27.913 27.991C27.709 28.069 27.475 28.108 27.211 28.108ZM27.355 27.325C27.637 27.325 27.886 27.259 28.102 27.127C28.318 26.995 28.483 26.809 28.597 26.569C28.717 26.329 28.777 26.05 28.777 25.732C28.777 25.414 28.717 25.138 28.597 24.904C28.483 24.664 28.318 24.478 28.102 24.346C27.886 24.208 27.637 24.139 27.355 24.139C27.085 24.139 26.842 24.208 26.626 24.346C26.41 24.478 26.242 24.664 26.122 24.904C26.002 25.138 25.942 25.414 25.942 25.732C25.942 26.05 26.002 26.329 26.122 26.569C26.242 26.809 26.41 26.995 26.626 27.127C26.842 27.259 27.085 27.325 27.355 27.325ZM30.9167 28V21.52H31.8167V28H30.9167ZM33.1154 28V23.464H34.0154V28H33.1154ZM33.5744 22.609C33.4004 22.609 33.2564 22.555 33.1424 22.447C33.0344 22.339 32.9804 22.201 32.9804 22.033C32.9804 21.871 33.0344 21.739 33.1424 21.637C33.2564 21.529 33.4004 21.475 33.5744 21.475C33.7424 21.475 33.8834 21.529 33.9974 21.637C34.1114 21.739 34.1684 21.871 34.1684 22.033C34.1684 22.201 34.1114 22.339 33.9974 22.447C33.8834 22.555 33.7424 22.609 33.5744 22.609ZM35.3024 28V23.464H36.1124L36.1664 24.238C36.3104 23.968 36.5144 23.755 36.7784 23.599C37.0424 23.437 37.3454 23.356 37.6874 23.356C38.0474 23.356 38.3564 23.428 38.6144 23.572C38.8724 23.716 39.0734 23.935 39.2174 24.229C39.3614 24.517 39.4334 24.88 39.4334 25.318V28H38.5334V25.408C38.5334 24.988 38.4404 24.67 38.2544 24.454C38.0684 24.238 37.7984 24.13 37.4444 24.13C37.2104 24.13 37.0004 24.187 36.8144 24.301C36.6284 24.409 36.4784 24.571 36.3644 24.787C36.2564 25.003 36.2024 25.267 36.2024 25.579V28H35.3024ZM42.4297 30.088C42.0157 30.088 41.6497 30.034 41.3317 29.926C41.0137 29.824 40.7677 29.665 40.5937 29.449C40.4197 29.233 40.3327 28.969 40.3327 28.657C40.3327 28.495 40.3687 28.33 40.4407 28.162C40.5127 28 40.6297 27.844 40.7917 27.694C40.9537 27.544 41.1727 27.409 41.4487 27.289L41.9527 27.694C41.6467 27.808 41.4397 27.943 41.3317 28.099C41.2297 28.261 41.1787 28.417 41.1787 28.567C41.1787 28.747 41.2327 28.897 41.3407 29.017C41.4487 29.137 41.5957 29.227 41.7817 29.287C41.9737 29.347 42.1897 29.377 42.4297 29.377C42.6637 29.377 42.8677 29.344 43.0417 29.278C43.2157 29.212 43.3507 29.119 43.4467 28.999C43.5427 28.879 43.5907 28.738 43.5907 28.576C43.5907 28.384 43.5187 28.222 43.3747 28.09C43.2307 27.964 42.9547 27.889 42.5467 27.865C42.2047 27.841 41.9137 27.808 41.6737 27.766C41.4397 27.724 41.2387 27.673 41.0707 27.613C40.9087 27.553 40.7707 27.487 40.6567 27.415C40.5487 27.343 40.4557 27.268 40.3777 27.19V26.983L41.2777 26.056L42.0067 26.308L41.0257 27.217L41.2147 26.812C41.2807 26.854 41.3437 26.896 41.4037 26.938C41.4637 26.974 41.5447 27.007 41.6467 27.037C41.7487 27.067 41.8867 27.094 42.0607 27.118C42.2347 27.142 42.4627 27.166 42.7447 27.19C43.1527 27.22 43.4797 27.292 43.7257 27.406C43.9777 27.52 44.1607 27.673 44.2747 27.865C44.3887 28.057 44.4457 28.285 44.4457 28.549C44.4457 28.807 44.3737 29.053 44.2297 29.287C44.0917 29.521 43.8727 29.713 43.5727 29.863C43.2787 30.013 42.8977 30.088 42.4297 30.088ZM42.4297 26.605C42.0457 26.605 41.7187 26.533 41.4487 26.389C41.1847 26.245 40.9807 26.05 40.8367 25.804C40.6987 25.558 40.6297 25.285 40.6297 24.985C40.6297 24.679 40.6987 24.406 40.8367 24.166C40.9807 23.92 41.1877 23.725 41.4577 23.581C41.7277 23.431 42.0517 23.356 42.4297 23.356C42.8077 23.356 43.1287 23.431 43.3927 23.581C43.6627 23.725 43.8667 23.92 44.0047 24.166C44.1487 24.406 44.2207 24.679 44.2207 24.985C44.2207 25.285 44.1487 25.558 44.0047 25.804C43.8667 26.05 43.6627 26.245 43.3927 26.389C43.1287 26.533 42.8077 26.605 42.4297 26.605ZM42.4297 25.885C42.7237 25.885 42.9577 25.81 43.1317 25.66C43.3057 25.504 43.3927 25.279 43.3927 24.985C43.3927 24.691 43.3057 24.469 43.1317 24.319C42.9577 24.163 42.7237 24.085 42.4297 24.085C42.1357 24.085 41.8987 24.163 41.7187 24.319C41.5387 24.469 41.4487 24.691 41.4487 24.985C41.4487 25.279 41.5387 25.504 41.7187 25.66C41.8987 25.81 42.1357 25.885 42.4297 25.885ZM43.1677 24.175L42.9517 23.464H44.8147V24.085L43.1677 24.175Z" fill="white"/>
<defs>
<linearGradient id="paint0_linear_330_768" x1="145.758" y1="52.1628" x2="146.381" y2="-1.55115" gradientUnits="userSpaceOnUse">
<stop offset="0.64423" stop-color="#0080C7"/>
<stop offset="1" stop-color="#8BD8F7"/>
</linearGradient>
</defs>
</svg>
